<svg width="24" height="24" viewBox="0 0 24 24" fill="none" xmlns="http://www.w3.org/2000/svg">
<g id="arrow-bar-up">
<path id="Vector" fill-rule="evenodd" clip-rule="evenodd" d="M12.0005 9.00012C11.8016 9.00012 11.6108 9.07914 11.4702 9.21979C11.3295 9.36045 11.2505 9.55121 11.2505 9.75012L11.2505 18.4396L8.03152 15.2191C7.96179 15.1494 7.879 15.0941 7.78789 15.0563C7.69678 15.0186 7.59913 14.9992 7.50052 14.9992C7.4019 14.9992 7.30425 15.0186 7.21314 15.0563C7.12203 15.0941 7.03925 15.1494 6.96952 15.2191C6.89979 15.2889 6.84447 15.3716 6.80673 15.4627C6.76899 15.5539 6.74957 15.6515 6.74957 15.7501C6.74957 15.8487 6.76899 15.9464 6.80673 16.0375C6.84447 16.1286 6.89979 16.2114 6.96952 16.2811L11.4695 20.7811C11.5392 20.851 11.6219 20.9064 11.7131 20.9442C11.8042 20.982 11.9019 21.0015 12.0005 21.0015C12.0992 21.0015 12.1968 20.982 12.288 20.9442C12.3791 20.9064 12.4618 20.851 12.5315 20.7811L17.0315 16.2811C17.1723 16.1403 17.2515 15.9493 17.2515 15.7501C17.2515 15.551 17.1723 15.36 17.0315 15.2191C16.8907 15.0783 16.6997 14.9992 16.5005 14.9992C16.3014 14.9992 16.1103 15.0783 15.9695 15.2191L12.7505 18.4396L12.7505 9.75012C12.7505 9.55121 12.6715 9.36045 12.5308 9.21979C12.3902 9.07914 12.1994 9.00012 12.0005 9.00012Z" fill="#BFD705"/>
</g>
</svg>
