<svg width="100" height="100" viewBox="0 0 100 100" fill="none" xmlns="http://www.w3.org/2000/svg">
<g id="bag-plus">
<path id="Vector" fill-rule="evenodd" clip-rule="evenodd" d="M50 6.25C45.856 6.25 41.8817 7.8962 38.9515 10.8265C36.0212 13.7567 34.375 17.731 34.375 21.875V25H65.625V21.875C65.625 17.731 63.9788 13.7567 61.0485 10.8265C58.1183 7.8962 54.144 6.25 50 6.25ZM71.875 25V21.875C71.875 16.0734 69.5703 10.5094 65.468 6.40704C61.3656 2.30468 55.8016 0 50 0C44.1984 0 38.6344 2.30468 34.532 6.40704C30.4297 10.5094 28.125 16.0734 28.125 21.875V25H6.25V87.5C6.25 90.8152 7.56696 93.9946 9.91117 96.3388C12.2554 98.683 15.4348 100 18.75 100H81.25C84.5652 100 87.7446 98.683 90.0888 96.3388C92.433 93.9946 93.75 90.8152 93.75 87.5V25H71.875ZM12.5 31.25V87.5C12.5 89.1576 13.1585 90.7473 14.3306 91.9194C15.5027 93.0915 17.0924 93.75 18.75 93.75H81.25C82.9076 93.75 84.4973 93.0915 85.6694 91.9194C86.8415 90.7473 87.5 89.1576 87.5 87.5V31.25H12.5Z" fill="#BFD705"/>
<path id="Vector_2" fill-rule="evenodd" clip-rule="evenodd" d="M50 46.875C50.8288 46.875 51.6237 47.2042 52.2097 47.7903C52.7958 48.3763 53.125 49.1712 53.125 50V59.375H62.5C63.3288 59.375 64.1237 59.7042 64.7097 60.2903C65.2958 60.8763 65.625 61.6712 65.625 62.5C65.625 63.3288 65.2958 64.1237 64.7097 64.7097C64.1237 65.2958 63.3288 65.625 62.5 65.625H53.125V75C53.125 75.8288 52.7958 76.6237 52.2097 77.2097C51.6237 77.7958 50.8288 78.125 50 78.125C49.1712 78.125 48.3763 77.7958 47.7903 77.2097C47.2042 76.6237 46.875 75.8288 46.875 75V65.625H37.5C36.6712 65.625 35.8763 65.2958 35.2903 64.7097C34.7042 64.1237 34.375 63.3288 34.375 62.5C34.375 61.6712 34.7042 60.8763 35.2903 60.2903C35.8763 59.7042 36.6712 59.375 37.5 59.375H46.875V50C46.875 49.1712 47.2042 48.3763 47.7903 47.7903C48.3763 47.2042 49.1712 46.875 50 46.875Z" fill="#BFD705"/>
</g>
</svg>
