<svg width="100" height="100" viewBox="0 0 100 100" fill="none" xmlns="http://www.w3.org/2000/svg">
<g id="calendar-check" clip-path="url(#clip0_215_207)">
<path id="Vector" fill-rule="evenodd" clip-rule="evenodd" d="M21.875 0C22.7038 0 23.4987 0.32924 24.0847 0.915291C24.6708 1.50134 25 2.2962 25 3.125V6.25H75V3.125C75 2.2962 75.3292 1.50134 75.9153 0.915291C76.5013 0.32924 77.2962 0 78.125 0C78.9538 0 79.7487 0.32924 80.3347 0.915291C80.9208 1.50134 81.25 2.2962 81.25 3.125V6.25H87.5C90.8152 6.25 93.9946 7.56696 96.3388 9.91117C98.683 12.2554 100 15.4348 100 18.75V87.5C100 90.8152 98.683 93.9946 96.3388 96.3388C93.9946 98.683 90.8152 100 87.5 100H12.5C9.18479 100 6.00537 98.683 3.66117 96.3388C1.31696 93.9946 0 90.8152 0 87.5V18.75C0 15.4348 1.31696 12.2554 3.66117 9.91117C6.00537 7.56696 9.18479 6.25 12.5 6.25H18.75V3.125C18.75 2.2962 19.0792 1.50134 19.6653 0.915291C20.2513 0.32924 21.0462 0 21.875 0V0ZM6.25 25V87.5C6.25 89.1576 6.90848 90.7473 8.08058 91.9194C9.25268 93.0915 10.8424 93.75 12.5 93.75H87.5C89.1576 93.75 90.7473 93.0915 91.9194 91.9194C93.0915 90.7473 93.75 89.1576 93.75 87.5V25H6.25Z" fill="#BFD705"/>
<path id="Vector_2" fill-rule="evenodd" clip-rule="evenodd" d="M67.8368 44.662C68.1278 44.9523 68.3587 45.2971 68.5163 45.6768C68.6738 46.0565 68.7549 46.4635 68.7549 46.8745C68.7549 47.2856 68.6738 47.6926 68.5163 48.0722C68.3587 48.4519 68.1278 48.7967 67.8368 49.087L49.0868 67.837C48.7965 68.128 48.4517 68.3589 48.072 68.5165C47.6924 68.674 47.2854 68.7551 46.8743 68.7551C46.4633 68.7551 46.0563 68.674 45.6766 68.5165C45.2969 68.3589 44.9521 68.128 44.6618 67.837L35.2868 58.462C34.9963 58.1715 34.7658 57.8265 34.6085 57.4469C34.4513 57.0673 34.3704 56.6604 34.3704 56.2495C34.3704 55.8386 34.4513 55.4317 34.6085 55.0521C34.7658 54.6725 34.9963 54.3276 35.2868 54.037C35.8736 53.4502 36.6695 53.1206 37.4993 53.1206C37.9102 53.1206 38.3171 53.2015 38.6967 53.3587C39.0763 53.516 39.4213 53.7465 39.7118 54.037L46.8743 61.2058L63.4118 44.662C63.7021 44.371 64.0469 44.1401 64.4266 43.9826C64.8063 43.825 65.2133 43.7439 65.6243 43.7439C66.0354 43.7439 66.4424 43.825 66.822 43.9826C67.2017 44.1401 67.5465 44.371 67.8368 44.662Z" fill="#BFD705"/>
</g>
<defs>
<clipPath id="clip0_215_207">
<rect width="100" height="100" fill="white"/>
</clipPath>
</defs>
</svg>
