<svg width="49" height="189" viewBox="0 0 49 189" fill="none" xmlns="http://www.w3.org/2000/svg">
<g id="chevron-compact-right">
<path id="Vector" fill-rule="evenodd" clip-rule="evenodd" d="M28.1727 170.068C27.817 170.766 27.4051 170.882 27.0276 170.391C26.6501 169.9 26.3379 168.841 26.1597 167.448L17.1597 96.9481C17.0551 96.1312 17.0007 95.2299 17.0007 94.3161C17.0007 93.4023 17.0551 92.5011 17.1597 91.6841L26.1597 21.1841C26.247 20.4883 26.3686 19.867 26.5175 19.3561C26.6664 18.8453 26.8397 18.4549 27.0273 18.2075C27.2149 17.9601 27.4132 17.8607 27.6106 17.9148C27.8081 17.969 28.0009 18.1757 28.1779 18.5231C28.3549 18.8704 28.5125 19.3515 28.6418 19.9387C28.7711 20.5259 28.8694 21.2075 28.9311 21.9442C28.9928 22.6809 29.0167 23.4582 29.0013 24.2312C28.986 25.0042 28.9317 25.7577 28.8417 26.4481L20.1807 94.3161L28.8417 162.184C29.0199 163.577 29.0495 165.19 28.924 166.669C28.7986 168.147 28.5283 169.37 28.1727 170.068Z" fill="#BFD705"/>
</g>
</svg>
