<svg width="100" height="100" viewBox="0 0 100 100" fill="none" xmlns="http://www.w3.org/2000/svg">
<g id="clock-history" clip-path="url(#clip0_215_182)">
<path id="Vector" fill-rule="evenodd" clip-rule="evenodd" d="M53.2188 6.36875C52.1477 6.28967 51.074 6.25006 50 6.25V0C51.2284 0.000598922 52.4563 0.0464634 53.6812 0.1375L53.2188 6.36875ZM65.7438 9.18125C63.7403 8.40815 61.6827 7.78355 59.5875 7.3125L60.9563 1.2125C63.35 1.75 65.7062 2.4625 67.9937 3.35L65.7438 9.18125ZM74.3062 13.6188C73.4127 13.0228 72.4975 12.4599 71.5625 11.9313L74.6437 6.49375C76.7807 7.7046 78.8257 9.07077 80.7625 10.5813L76.9188 15.5125C76.0714 14.8514 75.2 14.2218 74.3062 13.625V13.6188ZM85.7687 24.8063C84.5325 23.0498 83.1684 21.387 81.6875 19.8313L86.2125 15.5188C87.9 17.3 89.4625 19.2063 90.8813 21.2063L85.7687 24.8063ZM90.4188 33.2563C90.0085 32.2654 89.5624 31.2897 89.0813 30.3313L94.6625 27.5188C95.7662 29.713 96.7063 31.9859 97.475 34.3188L91.5375 36.275C91.2016 35.2554 90.8285 34.2485 90.4188 33.2563ZM93.7312 48.925C93.6807 46.7771 93.4718 44.6359 93.1063 42.5188L99.2625 41.4563C99.6813 43.8688 99.925 46.3188 99.9875 48.7688L93.7375 48.925H93.7312ZM92.9125 58.5375C93.1188 57.475 93.2875 56.4188 93.4187 55.35L99.625 56.1188C99.3248 58.5572 98.8443 60.9701 98.1875 63.3375L92.1625 61.6688C92.45 60.6375 92.7 59.5938 92.9125 58.5375ZM86.9625 73.4063C88.1125 71.5938 89.125 69.6938 90 67.7313L95.7125 70.2625C94.7125 72.5125 93.5562 74.675 92.2437 76.75L86.9625 73.4063ZM80.9375 80.9375C81.7 80.175 82.4313 79.3875 83.125 78.575L87.8625 82.6563C87.0602 83.5865 86.2243 84.4871 85.3562 85.3563L80.9375 80.9375Z" fill="#BFD705"/>
<path id="Vector_2" fill-rule="evenodd" clip-rule="evenodd" d="M50.0012 6.25C42.8067 6.25052 35.7234 8.02529 29.3786 11.4171C23.0338 14.8089 17.6234 19.7131 13.6266 25.6953C9.62977 31.6775 7.16993 38.553 6.46493 45.7129C5.75993 52.8728 6.83153 60.096 9.58482 66.7428C12.3381 73.3897 16.6881 79.2549 22.2495 83.8191C27.8109 88.3832 34.4121 91.5055 41.4683 92.9092C48.5245 94.3129 55.818 93.9548 62.7028 91.8666C69.5876 89.7784 75.8512 86.0245 80.9387 80.9375L85.3575 85.3563C79.5433 91.1736 72.384 95.4671 64.514 97.8562C56.6439 100.245 48.306 100.656 40.2391 99.053C32.1722 97.4496 24.6253 93.8812 18.2671 88.6639C11.909 83.4467 6.93581 76.7417 3.7883 69.1431C0.640798 61.5444 -0.583872 53.2868 0.222801 45.1017C1.02947 36.9166 3.84259 29.0569 8.41288 22.2189C12.9832 15.3809 19.1696 9.77569 26.4239 5.90002C33.6782 2.02434 41.7765 -0.00217958 50.0012 1.75911e-06V6.25Z" fill="#BFD705"/>
<path id="Vector_3" fill-rule="evenodd" clip-rule="evenodd" d="M46.875 18.75C47.7038 18.75 48.4987 19.0792 49.0847 19.6653C49.6708 20.2513 50 21.0462 50 21.875V54.4375L70.3 66.0375C70.9987 66.459 71.5048 67.1371 71.7102 67.9268C71.9156 68.7165 71.8039 69.5553 71.3991 70.2637C70.9942 70.9722 70.3283 71.4943 69.5437 71.7183C68.759 71.9423 67.9179 71.8505 67.2 71.4625L45.325 58.9625C44.8467 58.6893 44.4491 58.2945 44.1725 57.8182C43.8959 57.3418 43.7502 56.8008 43.75 56.25V21.875C43.75 21.0462 44.0792 20.2513 44.6653 19.6653C45.2513 19.0792 46.0462 18.75 46.875 18.75Z" fill="#BFD705"/>
</g>
<defs>
<clipPath id="clip0_215_182">
<rect width="100" height="100" fill="white"/>
</clipPath>
</defs>
</svg>
