<?xml version="1.0" standalone="no"?>
<!DOCTYPE svg PUBLIC "-//W3C//DTD SVG 1.1//EN" "http://www.w3.org/Graphics/SVG/1.1/DTD/svg11.dtd" >
<svg xmlns="http://www.w3.org/2000/svg" xmlns:xlink="http://www.w3.org/1999/xlink" version="1.1">
<metadata>
Created by FontForge 20170731 at Sun Sep 21 15:36:55 1997
 By Aleksey,,,
a_Avante(IntermediateSubSet) *Arsenal Company (c)1997* FAX: (095)924-3775; e-Mail: arsenal@itco.msk.su; Phone: (095)924-5811 (Design and Featuring W.Chufarofsky &#38; M.Slutsker)
</metadata>
<defs>
<font id="AAvanteIntBold" horiz-adv-x="591" >
  <font-face 
    font-family="a_AvanteInt"
    font-weight="700"
    font-stretch="normal"
    units-per-em="1000"
    panose-1="2 11 7 2 2 2 2 2 2 4"
    ascent="800"
    descent="-200"
    x-height="518"
    cap-height="720"
    bbox="-16 -235 1230 920"
    underline-thickness="130"
    underline-position="-375"
    unicode-range="U+0020-2122"
  />
<missing-glyph horiz-adv-x="500" 
d="M63 0v920h375v-920h-375zM125 63h250v795h-250v-795z" />
    <glyph glyph-name=".notdef" horiz-adv-x="500" 
d="M63 0v920h375v-920h-375zM125 63h250v795h-250v-795z" />
    <glyph glyph-name=".null" horiz-adv-x="0" 
 />
    <glyph glyph-name="nonmarkingreturn" horiz-adv-x="310" 
 />
    <glyph glyph-name="space" unicode=" " horiz-adv-x="310" 
 />
    <glyph glyph-name="exclam" unicode="!" horiz-adv-x="310" 
d="M222 208h-134v512h134v-512zM220 0h-130v140h130v-140z" />
    <glyph glyph-name="quotedbl" unicode="&#x22;" horiz-adv-x="377" 
d="M338 715l-17 -282h-85l-17 282h119zM158 715l-17 -282h-85l-17 282h119z" />
    <glyph glyph-name="numbersign" unicode="#" horiz-adv-x="690" 
d="M654 498l-20 -90h-129l-28 -100h134l-20 -90h-135l-51 -197h-97l52 197h-102l-51 -197h-96l50 197h-124l20 90h126l28 100h-131l20 90h131l51 190h96l-51 -190h101l51 190h97l-51 -190h129zM409 408h-102l-28 -100h102z" />
    <glyph glyph-name="dollar" unicode="$" 
d="M72 216h129q0 -94 91 -94q39 0 61 25.5t22 65.5q0 19 -5 32q-13 34 -90 65q-99 41 -128 64q-66 50 -66 136q0 73 41.5 124.5t112.5 68.5v102h112v-102q138 -38 138 -183h-123q-5 77 -74 77q-33 0 -55 -17t-22 -49q0 -48 75 -90q136 -75 141 -78q75 -57 75 -142
q0 -80 -38 -133q-41 -57 -117 -72v-113h-112v110q-80 15 -124 68t-44 135z" />
    <glyph glyph-name="percent" unicode="%" horiz-adv-x="862" 
d="M649 338q74 0 125 -51t51 -125q0 -72 -52 -124t-124 -52q-73 0 -125 51.5t-52 124.5q0 74 51.5 125t125.5 51zM647 727l-342 -735h-92l342 735h92zM391 559q0 -73 -52 -124t-125 -51q-72 0 -124 51.5t-52 123.5t52 124t124 52q73 0 125 -51.5t52 -124.5zM729 162
q0 35 -23 58.5t-58 23.5t-59 -23.5t-24 -58.5q0 -33 25 -58t58 -25q34 0 57.5 24.5t23.5 58.5zM295 559q0 36 -23 59t-59 23t-59.5 -23t-23.5 -59q0 -35 24 -58t59 -23q36 0 59 22.5t23 58.5z" />
    <glyph glyph-name="ampersand" unicode="&#x26;" horiz-adv-x="720" 
d="M303 732q75 0 126.5 -51t51.5 -126q0 -89 -107 -160l97 -94q33 67 61 148h138q-44 -128 -104 -238l133 -127l-86 -89l-117 109q-82 -118 -211 -118q-92 0 -160 60.5t-68 151.5q0 116 134 202q-75 62 -75 148q0 80 53.5 132t133.5 52zM359 559q0 60 -57 60
q-26 0 -42.5 -17.5t-16.5 -43.5q0 -50 52 -90q64 43 64 91zM405 191q-8 7 -72 68q-20 19 -59 60q-78 -49 -78 -112q0 -41 27 -67t68 -26q67 0 114 77z" />
    <glyph glyph-name="quotesingle" unicode="'" horiz-adv-x="196" 
d="M157 715l-17 -282h-84l-17 282h118z" />
    <glyph glyph-name="parenleft" unicode="(" horiz-adv-x="356" 
d="M312 -74v-144q-120 47 -172 119.5t-52 198.5v336q0 223 224 311v-148q-60 -26 -78 -71q-13 -32 -13 -108v-301q0 -79 13 -113q18 -48 78 -80z" />
    <glyph glyph-name="parenright" unicode=")" horiz-adv-x="356" 
d="M44 -74q60 32 78 80q13 33 13 113v308q0 73 -14 104q-18 42 -77 68v148q113 -44 167 -117q57 -76 57 -194v-336q0 -126 -52 -198.5t-172 -119.5v144z" />
    <glyph glyph-name="asterisk" unicode="*" horiz-adv-x="579" 
d="M499 532l-137 -38l89 -114l-79 -58l-82 120l-82 -120l-80 58l89 114l-136 38l32 94l131 -47l-2 141h95l-2 -141l132 47z" />
    <glyph glyph-name="plus" unicode="+" horiz-adv-x="714" 
d="M628 218h-214v-218h-113v218h-214v113h214v216h113v-216h214v-113z" />
    <glyph glyph-name="comma" unicode="," horiz-adv-x="298" 
d="M83 141h133v-158q0 -60 -36 -92t-97 -32v75q35 0 46 16q9 13 9 50h-55v141z" />
    <glyph glyph-name="hyphen" unicode="-" horiz-adv-x="304" 
d="M282 213h-259v125h259v-125z" />
    <glyph glyph-name="hyphen" unicode="&#x2010;" horiz-adv-x="304" 
d="M282 213h-259v125h259v-125z" />
    <glyph glyph-name="period" unicode="." horiz-adv-x="298" 
d="M215 0h-133v144h133v-144z" />
    <glyph glyph-name="slash" unicode="/" horiz-adv-x="429" 
d="M401 727l-246 -822h-133l246 822h133z" />
    <glyph glyph-name="zero" unicode="0" 
d="M38 250v220q0 114 72 189t186 75t185.5 -74t71.5 -188v-223q0 -114 -71.5 -188.5t-185.5 -74.5t-186 75t-72 189zM183 470v-234q0 -52 30.5 -85.5t81.5 -33.5q111 0 111 134v219q0 133 -111 133q-112 0 -112 -133z" />
    <glyph glyph-name="one" unicode="1" 
d="M467 0h-350v129h103v471h-83v120h228v-591h102v-129z" />
    <glyph glyph-name="two" unicode="2" 
d="M301 734q98 0 167 -64t69 -162q0 -156 -204 -311q-50 -38 -80 -67h284v-130h-483v122q36 37 95 84q145 116 206 197q39 52 39 101q0 44 -26.5 72t-70.5 28q-106 0 -106 -133h-137v2q0 121 63.5 191t183.5 70z" />
    <glyph glyph-name="three" unicode="3" 
d="M81 590v130h424v-124l-135 -119q176 -46 176 -233q0 -118 -70 -188t-187 -70q-115 0 -183 66.5t-68 180.5h145q0 -50 26 -80q27 -33 76 -33q50 0 82.5 31.5t32.5 81.5q0 69 -28 100.5t-96 31.5q-6 0 -76 -14l-57 83l166 156h-228z" />
    <glyph glyph-name="four" unicode="4" 
d="M561 126h-77v-126h-132v126h-322v114l319 480h135v-476h77v-118zM352 244v292l-180 -292h180z" />
    <glyph glyph-name="five" unicode="5" 
d="M559 247q0 -113 -78 -187t-192 -74q-104 0 -173.5 59t-83.5 162h144q9 -39 41 -64t72 -25q53 0 89 36.5t36 89.5q0 57 -34.5 90t-91.5 33q-74 0 -108 -63l-119 28l65 388h366v-128h-258l-26 -134q42 33 110 33q102 0 171.5 -70.5t69.5 -173.5z" />
    <glyph glyph-name="six" unicode="6" 
d="M561 248q0 -110 -78 -186t-188 -76q-113 0 -189 75t-76 188q0 44 24 100q35 82 107 190q62 91 124 181h164q-57 -78 -167 -237q25 9 68 9q93 0 154 -77q57 -71 57 -167zM417 245q0 54 -35 89t-89 35q-50 0 -86.5 -35.5t-36.5 -85.5q0 -52 35 -91t87 -39q56 0 90.5 35.5
t34.5 91.5z" />
    <glyph glyph-name="seven" unicode="7" 
d="M517 595l-258 -595h-156l270 593h-293v127h437v-125z" />
    <glyph glyph-name="eight" unicode="8" 
d="M538 218q0 -101 -71.5 -166.5t-172.5 -65.5q-96 0 -168 66q-75 68 -75 163q0 131 110 183q-72 52 -72 139q0 85 60 141t145 56q86 0 147 -55t61 -140q0 -90 -75 -141q111 -48 111 -180zM374 531q0 34 -21.5 57.5t-55.5 23.5q-35 0 -57.5 -23t-22.5 -58t21.5 -58.5
t56.5 -23.5t57 23.5t22 58.5zM397 223q0 48 -27.5 77.5t-74.5 29.5q-46 0 -74 -30t-28 -76q0 -45 29 -76.5t73 -31.5q45 0 73.5 31t28.5 76z" />
    <glyph glyph-name="nine" unicode="9" 
d="M32 472q0 111 77.5 186.5t188.5 75.5q115 0 190 -74t75 -189q0 -101 -168 -342q-41 -58 -87 -129h-164q57 78 167 237q-25 -9 -68 -9q-92 0 -154 77q-57 72 -57 167zM176 475q0 -52 36 -88t88 -36q51 0 87 35t36 86q0 54 -34.5 92t-87.5 38q-55 0 -90 -36t-35 -91z" />
    <glyph glyph-name="colon" unicode=":" horiz-adv-x="300" 
d="M216 374h-133v144h133v-144zM216 0h-133v144h133v-144z" />
    <glyph glyph-name="semicolon" unicode=";" horiz-adv-x="300" 
d="M216 374h-133v144h133v-144zM83 141h134v-159q0 -61 -36 -92t-97 -31v75q38 3 47 16q8 10 8 50h-56v141z" />
    <glyph glyph-name="less" unicode="&#x3c;" horiz-adv-x="714" 
d="M627 -1l-539 222v108l539 223v-124l-408 -153l408 -154v-122z" />
    <glyph glyph-name="equal" unicode="=" horiz-adv-x="714" 
d="M628 332h-541v112h541v-112zM628 106h-541v112h541v-112z" />
    <glyph glyph-name="greater" unicode="&#x3e;" horiz-adv-x="714" 
d="M627 221l-539 -222v122l407 154l-407 153v124l539 -223v-108z" />
    <glyph glyph-name="question" unicode="?" horiz-adv-x="535" 
d="M313 209h-135q0 90 74 169q21 19 60 60q31 37 31 77q0 88 -87 88q-88 0 -88 -110h-138v16q0 98 68.5 161.5t166.5 63.5q100 0 160 -53q63 -56 63 -154q0 -62 -45 -121q-42 -46 -85 -92q-45 -54 -45 -105zM308 0h-130v141h130v-141z" />
    <glyph glyph-name="at" unicode="@" horiz-adv-x="1013" 
d="M635 422l28 57h65l-71 -285q-4 -16 -4 -29q0 -46 49 -46q50 0 103 50q84 80 84 208q0 138 -104 217q-94 71 -237 71q-180 0 -300 -114q-124 -116 -124 -294q0 -88 30 -152q44 -94 148 -146q93 -47 206 -47q171 0 307 94l28 -41q-146 -109 -329 -109q-190 0 -310 92
q-152 117 -152 310q0 140 73.5 252.5t201.5 169.5q100 45 225 45q83 0 154 -22q113 -35 182 -116q73 -87 73 -201q0 -177 -122 -273q-71 -56 -157 -56q-98 0 -98 87q-54 -85 -149 -85q-156 0 -156 165q0 107 63 187q68 85 173 85q84 0 120 -74zM617 352q-17 91 -97 91
q-77 0 -123 -76q-39 -64 -39 -146q0 -108 93 -108q48 0 85.5 33.5t51.5 88.5z" />
    <glyph glyph-name="A" unicode="A" horiz-adv-x="674" 
d="M683 0h-156l-57 156h-267l-58 -156h-154l285 720h123zM427 278l-89 265l-91 -265h180z" />
    <glyph glyph-name="B" unicode="B" horiz-adv-x="575" 
d="M64 0v720h211q103 0 163 -43q69 -49 69 -148q0 -95 -81 -142q117 -39 117 -166q0 -111 -78 -169q-70 -52 -185 -52h-216zM366 514q0 76 -98 76h-63v-157h51q110 0 110 81zM205 313v-183h84q79 0 104 41q11 18 11 49q0 93 -113 93h-86z" />
    <glyph glyph-name="C" unicode="C" horiz-adv-x="782" 
d="M749 225q-43 -111 -132.5 -175t-207.5 -64q-159 0 -267.5 109t-108.5 268q0 156 108.5 263.5t264.5 107.5q122 0 213.5 -64t129.5 -179h-158q-64 110 -186 110q-97 0 -161.5 -69.5t-64.5 -167.5t64 -170q66 -75 163 -75q123 0 183 106h160z" />
    <glyph glyph-name="D" unicode="D" horiz-adv-x="703" 
d="M56 0v720h252q163 0 259.5 -98.5t96.5 -262.5q0 -172 -106 -268q-102 -91 -277 -91h-225zM520 357q0 109 -59 171t-167 62h-95v-460h101q106 0 163 60t57 167z" />
    <glyph glyph-name="E" unicode="E" horiz-adv-x="508" 
d="M451 0h-387v720h387v-128h-243v-163h240v-129h-240v-169h243v-131z" />
    <glyph glyph-name="F" unicode="F" horiz-adv-x="484" 
d="M436 720v-128h-229v-169h226v-128h-226v-295h-144v720h373z" />
    <glyph glyph-name="G" unicode="G" horiz-adv-x="814" 
d="M783 387q0 -172 -101 -284q-105 -117 -275 -117q-157 0 -266 110.5t-109 267.5q0 158 111 264t269 106q114 0 205 -59q96 -61 133 -166h-168q-63 92 -175 92q-96 0 -162.5 -69.5t-66.5 -166.5q0 -101 64.5 -174t164.5 -73q149 0 210 145h-271v124h437z" />
    <glyph glyph-name="H" unicode="H" horiz-adv-x="680" 
d="M616 0h-144v301h-264v-301h-144v720h144v-288h264v288h144v-720z" />
    <glyph glyph-name="I" unicode="I" horiz-adv-x="277" 
d="M211 0h-145v720h145v-720z" />
    <glyph glyph-name="J" unicode="J" horiz-adv-x="507" 
d="M302 720h144v-500q0 -233 -226 -233q-96 0 -154.5 57t-58.5 153h149q0 -81 69 -81q48 0 65 35q12 24 12 78v491z" />
    <glyph glyph-name="K" unicode="K" horiz-adv-x="616" 
d="M618 720l-265 -349l269 -371h-173l-241 359v-359h-144v720h144v-347l251 347h159z" />
    <glyph glyph-name="L" unicode="L" horiz-adv-x="447" 
d="M432 0h-368v720h144v-589h224v-131z" />
    <glyph glyph-name="M" unicode="M" horiz-adv-x="878" 
d="M815 720v-720h-139v407q0 24 3 70.5t3 69.5h-2l-192 -547h-98l-192 547h-2q0 -23 3 -69.5t3 -70.5v-407h-139v720h200l176 -522l176 522h200z" />
    <glyph glyph-name="N" unicode="N" horiz-adv-x="712" 
d="M647 0h-129l-320 502l4 -502h-138v720h134l315 -498l-3 498h137v-720z" />
    <glyph glyph-name="O" unicode="O" horiz-adv-x="814" 
d="M781 362q0 -158 -108 -267t-266 -109q-156 0 -265 110t-109 266q0 155 110 263.5t265 108.5q156 0 264.5 -108t108.5 -264zM635 363q0 97 -66 167.5t-162 70.5q-95 0 -161.5 -71.5t-66.5 -167.5q0 -97 66 -170t162 -73q100 0 165 73q63 70 63 171z" />
    <glyph glyph-name="P" unicode="P" horiz-adv-x="570" 
d="M208 0h-144v720h234q256 0 256 -222q0 -173 -153 -224q-40 -13 -96 -16h-97v-258zM208 592v-205h74q132 0 132 102q0 103 -128 103h-78z" />
    <glyph glyph-name="Q" unicode="Q" horiz-adv-x="820" 
d="M809 -9q-123 0 -203 51q-90 -56 -199 -56q-158 0 -266.5 108.5t-108.5 267.5q0 155 110 263.5t265 108.5q158 0 266 -109t108 -267q0 -134 -74 -224q42 -20 102 -20v-123zM636 363q0 96 -66.5 167t-162.5 71t-162.5 -71.5t-66.5 -167.5q0 -98 65 -169q67 -74 164 -74
q100 0 166 73q63 70 63 171z" />
    <glyph glyph-name="R" unicode="R" horiz-adv-x="604" 
d="M578 0h-170l-202 293v-293h-142v720h244q119 0 188 -60q74 -63 74 -180q0 -85 -54 -148t-138 -71zM431 475q0 116 -149 116h-76v-224h76q72 0 104 18q45 24 45 90z" />
    <glyph glyph-name="S" unicode="S" horiz-adv-x="529" 
d="M27 223h144q0 -44 23 -75q25 -35 68 -35t69 27.5t26 70.5q0 48 -56 84q-26 18 -98 47q-157 64 -157 192q0 95 67 150q63 50 160 50q98 0 156 -55t58 -153h-139q-7 83 -80 83q-81 0 -81 -73q0 -25 22 -51t67 -46q86 -38 121 -60q70 -43 92 -94q13 -30 13 -72
q0 -106 -65.5 -166.5t-172.5 -60.5q-108 0 -172.5 64.5t-64.5 172.5z" />
    <glyph glyph-name="T" unicode="T" horiz-adv-x="450" 
d="M440 591h-142v-591h-145v591h-142v129h429v-129z" />
    <glyph glyph-name="U" unicode="U" horiz-adv-x="626" 
d="M60 720h144v-457q0 -145 110 -145q63 0 88 43q20 34 20 102v457h144v-460q0 -121 -64 -195q-67 -79 -186 -79q-113 0 -184.5 71.5t-71.5 183.5v479z" />
    <glyph glyph-name="V" unicode="V" horiz-adv-x="644" 
d="M645 720l-250 -720h-146l-250 720h150l173 -549l173 549h150z" />
    <glyph glyph-name="W" unicode="W" horiz-adv-x="905" 
d="M904 720l-205 -720h-128l-119 504l-120 -504h-130l-202 720h147l127 -514l124 514h109l122 -514l128 514h147z" />
    <glyph glyph-name="X" unicode="X" horiz-adv-x="666" 
d="M662 0h-165l-166 268l-164 -268h-163l246 374l-228 346h165l148 -242l144 242h166l-227 -348z" />
    <glyph glyph-name="Y" unicode="Y" horiz-adv-x="567" 
d="M284 403l132 317h157l-217 -456v-264h-145v264l-217 456h157l132 -318z" />
    <glyph glyph-name="Z" unicode="Z" horiz-adv-x="484" 
d="M466 0h-448v112l281 477h-271v131h434v-121l-277 -468h281v-131z" />
    <glyph glyph-name="bracketleft" unicode="[" horiz-adv-x="363" 
d="M208 626v-749h111v-108h-242v965h242v-108h-111z" />
    <glyph glyph-name="backslash" unicode="\" horiz-adv-x="429" 
d="M415 -95h-133l-247 822h133z" />
    <glyph glyph-name="bracketright" unicode="]" horiz-adv-x="363" 
d="M155 626h-111v108h242v-965h-242v108h111v749z" />
    <glyph glyph-name="asciicircum" unicode="^" horiz-adv-x="799" 
d="M673 405h-132l-142 214l-142 -214h-132l211 316h127z" />
    <glyph glyph-name="underscore" unicode="_" horiz-adv-x="500" 
d="M506 -180h-512v60h512v-60z" />
    <glyph glyph-name="grave" unicode="`" horiz-adv-x="523" 
d="M359 657l-52 -48l-168 111l2 85l89 -21z" />
    <glyph glyph-name="a" unicode="a" horiz-adv-x="633" 
d="M579 0h-128v61q-59 -75 -162 -75q-114 0 -186.5 79t-72.5 195q0 115 72 194t186 79q105 0 161 -71v56h130v-518zM453 257q0 66 -43 112.5t-108 46.5q-64 0 -105 -46t-41 -110q0 -63 42.5 -110.5t105.5 -47.5q61 0 105 47t44 108z" />
    <glyph glyph-name="b" unicode="b" horiz-adv-x="633" 
d="M603 260q0 -118 -73 -196t-190 -78q-101 0 -160 76v-62h-126v770h130v-304q67 67 162 67q115 0 186 -78.5t71 -194.5zM326 102q64 0 107.5 46.5t43.5 111.5q0 64 -42.5 110t-106.5 46q-63 0 -105.5 -46.5t-42.5 -110.5q0 -62 42.5 -109.5t103.5 -47.5z" />
    <glyph glyph-name="c" unicode="c" horiz-adv-x="588" 
d="M562 187q-23 -95 -93 -148.5t-169 -53.5q-119 0 -196 77.5t-77 196.5q0 121 75.5 197.5t196.5 76.5q102 0 170 -50q71 -53 92 -151h-130q-39 84 -136 84q-67 0 -104 -44.5t-37 -112.5q0 -66 40.5 -111.5t105.5 -45.5q100 0 131 85h131z" />
    <glyph glyph-name="d" unicode="d" horiz-adv-x="633" 
d="M579 0h-128v57q-59 -71 -162 -71q-114 0 -186.5 79t-72.5 195q0 114 71.5 193.5t184.5 79.5q97 0 163 -68v305h130v-770zM452 258q0 67 -40.5 112.5t-106.5 45.5q-65 0 -107 -45.5t-42 -110.5q0 -64 41.5 -110.5t105.5 -46.5t106.5 45.5t42.5 109.5z" />
    <glyph glyph-name="e" unicode="e" horiz-adv-x="594" 
d="M419 163h132q-72 -178 -252 -178q-119 0 -195 77.5t-76 196.5q0 115 77 195t192 80q88 0 154.5 -46t96.5 -129q19 -52 19 -141h-413q21 -123 146 -123q48 0 72 11q32 16 47 57zM439 313q-25 110 -140 110q-112 0 -142 -110h282z" />
    <glyph glyph-name="f" unicode="f" horiz-adv-x="268" 
d="M268 416h-70v-416h-130v416h-56v102h55v92q0 160 181 160h20v-101q-72 -2 -72 -64v-87h72v-102z" />
    <glyph glyph-name="g" unicode="g" horiz-adv-x="633" 
d="M579 48q0 -132 -70 -207q-73 -76 -204 -76q-93 0 -162 45q-75 49 -96 135h143q12 -33 43 -52.5t67 -19.5q78 0 117 58q32 49 32 132q-60 -77 -156 -77q-115 0 -189 79t-74 195q0 114 73.5 193.5t186.5 79.5q103 0 159 -71v56h130v-470zM451 256q0 65 -41.5 112t-106.5 47
q-63 0 -105 -45.5t-42 -109.5t43 -110.5t106 -46.5q62 0 104 45.5t42 107.5z" />
    <glyph glyph-name="h" unicode="h" horiz-adv-x="567" 
d="M512 0h-130v285q0 128 -93 128q-103 0 -103 -148v-265h-131v770h131v-307q43 67 135 67q94 0 144 -57q47 -55 47 -150v-323z" />
    <glyph glyph-name="i" unicode="i" horiz-adv-x="239" 
d="M181 622h-123v127h123v-127zM184 0h-129v518h129v-518z" />
    <glyph glyph-name="j" unicode="j" horiz-adv-x="243" 
d="M185 622h-124v127h124v-127zM188 -51q0 -104 -52 -143q-45 -34 -152 -34v102q48 0 62 19q12 15 12 66v559h130v-569z" />
    <glyph glyph-name="k" unicode="k" horiz-adv-x="506" 
d="M183 770v-482l160 230h147l-186 -240l202 -278h-148l-175 255v-255h-129v770h129z" />
    <glyph glyph-name="l" unicode="l" horiz-adv-x="241" 
d="M186 0h-131v770h131v-770z" />
    <glyph glyph-name="m" unicode="m" horiz-adv-x="867" 
d="M814 0h-130v294q0 122 -91 122q-94 0 -94 -135v-281h-128v274q0 142 -91 142q-98 0 -98 -139v-277h-128v518h121v-59q46 71 139 71q102 0 149 -90q47 90 163 90q89 0 138.5 -54t49.5 -144v-332z" />
    <glyph glyph-name="n" unicode="n" horiz-adv-x="569" 
d="M516 0h-130v289q0 124 -97 124q-104 0 -104 -148v-265h-131v518h125v-58q48 70 140 70q97 0 147 -55t50 -153v-322z" />
    <glyph glyph-name="o" unicode="o" horiz-adv-x="612" 
d="M160 259q0 -67 39.5 -110.5t106.5 -43.5t106.5 43.5t39.5 110.5q0 69 -39 112.5t-107 43.5q-67 0 -106.5 -44t-39.5 -112zM585 262q0 -122 -78.5 -199t-200.5 -77t-200.5 77.5t-78.5 198.5q0 118 80.5 195t198.5 77q119 0 199 -77t80 -195z" />
    <glyph glyph-name="p" unicode="p" horiz-adv-x="633" 
d="M603 256q0 -111 -72 -191t-182 -80q-99 0 -165 70v-277h-130v740h125v-63q64 77 166 77q116 0 188 -81q70 -77 70 -195zM477 258q0 66 -42.5 111.5t-107.5 45.5q-62 0 -104 -46t-42 -109q0 -66 41 -112t106 -46q62 0 105.5 47t43.5 109z" />
    <glyph glyph-name="q" unicode="q" horiz-adv-x="633" 
d="M30 256q0 -110 71 -189q74 -82 183 -82q99 0 165 70v-277h130v740h-125v-63q-64 77 -166 77q-116 0 -187 -79.5t-71 -196.5zM156 258q0 66 42.5 111.5t107.5 45.5q63 0 104.5 -45.5t41.5 -109.5q0 -66 -41 -112t-106 -46q-61 0 -105 47t-44 109z" />
    <glyph glyph-name="r" unicode="r" horiz-adv-x="333" 
d="M312 518v-141q-13 8 -56 8q-72 0 -72 -95v-290h-130v518h124v-59q14 25 41 45.5t53 20.5q21 0 40 -7z" />
    <glyph glyph-name="s" unicode="s" horiz-adv-x="434" 
d="M27 161h122q0 -71 69 -71q64 0 64 56q0 31 -40 55q-15 8 -68 29q-59 23 -95.5 53.5t-36.5 89.5q0 71 52 116.5t124 45.5q158 0 174 -156h-122q0 50 -55 50q-51 0 -51 -47q0 -11 4 -19t16 -16q25 -17 76.5 -38.5t73.5 -36.5q38 -25 57 -64q13 -26 13 -63q0 -81 -56 -123
q-51 -37 -134 -37q-79 0 -133 49t-54 127z" />
    <glyph glyph-name="t" unicode="t" horiz-adv-x="284" 
d="M272 416h-74v-416h-130v416h-56v102h56v170h130v-170h74v-102z" />
    <glyph glyph-name="u" unicode="u" horiz-adv-x="568" 
d="M511 0h-124v58q-46 -72 -132 -72q-97 0 -151 62q-51 58 -51 157v313h130v-284q0 -130 95 -130q103 0 103 148v266h130v-518z" />
    <glyph glyph-name="v" unicode="v" horiz-adv-x="515" 
d="M506 518l-196 -518h-110l-191 518h131l117 -352l120 352h129z" />
    <glyph glyph-name="w" unicode="w" horiz-adv-x="740" 
d="M735 518l-169 -518h-99l-97 344l-97 -344h-98l-169 518h131l91 -334l96 334h94l95 -334l92 334h130z" />
    <glyph glyph-name="x" unicode="x" horiz-adv-x="516" 
d="M0 0l183 275l-169 243h146l98 -156l98 156h146l-169 -243l183 -275h-147l-111 178l-111 -178h-147z" />
    <glyph glyph-name="y" unicode="y" horiz-adv-x="520" 
d="M522 518l-283 -740h-131l95 243l-199 497h134l129 -344l122 344h133z" />
    <glyph glyph-name="z" unicode="z" horiz-adv-x="401" 
d="M377 518v-107l-218 -308h224v-103h-371v91l234 325h-218v102h349z" />
    <glyph glyph-name="braceleft" unicode="{" horiz-adv-x="523" 
d="M223 248v-2q116 -22 116 -127v-173q0 -50 32 -67q22 -12 79 -12v-98h-69q-89 0 -129 32q-44 36 -44 122v164q0 56 -30 78q-26 19 -85 19v126q54 0 84.5 19t30.5 78v164q0 87 45 122q39 32 129 32h68v-98q-57 0 -79 -11q-32 -16 -32 -67v-174q0 -103 -116 -127z" />
    <glyph glyph-name="bar" unicode="|" horiz-adv-x="500" 
d="M317 725v-956h-131v956h131z" />
    <glyph glyph-name="braceright" unicode="}" horiz-adv-x="523" 
d="M300 248q-116 24 -116 127v174q0 52 -32 68q-21 10 -79 10v98h68q91 0 130 -31q44 -35 44 -123v-164q0 -55 31 -78q26 -19 84 -19v-126q-58 0 -84 -19q-31 -23 -31 -78v-164q0 -86 -44 -122q-40 -32 -129 -32h-69v98q61 0 86 15t25 64v173q0 105 116 127v2z" />
    <glyph glyph-name="asciitilde" unicode="~" horiz-adv-x="714" 
d="M621 373l18 -114q-74 -79 -159 -79q-42 0 -122 34t-125 34q-64 0 -139 -72l-18 113q77 79 158 79q44 0 124 -33t124 -33q68 0 139 71z" />
    <glyph glyph-name="currency" unicode="&#xa4;" horiz-adv-x="607" 
d="M589 160l-60 -59l-93 93q-59 -42 -130 -42q-75 0 -133 42l-93 -93l-59 59l93 94q-41 55 -41 130t41 132l-94 94l60 58l93 -93q61 42 132 42q74 0 131 -42l93 93l60 -58l-93 -94q40 -58 40 -132q0 -77 -40 -130zM306 513q-54 0 -91.5 -37.5t-37.5 -90.5q0 -52 38 -90
t90 -38q53 0 90.5 37.5t37.5 90.5t-37 90.5t-90 37.5z" />
    <glyph glyph-name="brokenbar" unicode="&#xa6;" horiz-adv-x="500" 
d="M317 184v-415h-131v415h131zM317 310h-131v415h131v-415z" />
    <glyph glyph-name="section" unicode="&#xa7;" horiz-adv-x="579" 
d="M493 553h-119q-14 72 -87 72t-73 -61q0 -41 80 -79l143 -68q104 -49 104 -172q0 -95 -92 -149q40 -46 40 -108q0 -81 -66 -130q-61 -45 -144 -45t-143 51q-63 54 -63 136h121q12 -77 93 -77q34 0 55 14q26 17 26 49q0 29 -28 51q-15 12 -53 30l-145 70q-102 49 -102 168
q0 87 90 152q-38 42 -38 103q0 80 61 129q56 45 138 45q86 0 142 -47q60 -49 60 -134zM426 236q0 54 -70 88l-153 75q-50 -25 -50 -78q0 -51 70 -86l153 -77q50 24 50 78z" />
    <glyph glyph-name="copyright" unicode="&#xa9;" horiz-adv-x="811" 
d="M405 728q154 0 261.5 -107t107.5 -261q0 -151 -109 -260t-260 -109q-150 0 -259 109.5t-109 259.5q0 151 108.5 259.5t259.5 108.5zM711 360q0 130 -88 219t-218 89q-126 0 -216 -91t-90 -217q0 -127 90 -218t216 -91q127 0 216.5 91t89.5 218zM591 302
q-9 -74 -59.5 -117t-125.5 -43q-92 0 -147 66q-52 62 -52 155q0 95 54.5 157t148.5 62q68 0 117 -39q53 -40 59 -106h-87q-10 72 -93 72q-105 0 -105 -148q0 -59 25 -98q30 -47 85 -47q76 0 92 86h88z" />
    <glyph glyph-name="guillemotleft" unicode="&#xab;" horiz-adv-x="470" 
d="M129 305l120 -153h-110l-123 153l123 155h109zM325 305l120 -153h-111l-123 153l123 155h111z" />
    <glyph glyph-name="logicalnot" unicode="&#xac;" horiz-adv-x="714" 
d="M630 146h-111v176h-440v112h551v-288z" />
    <glyph glyph-name="registered" unicode="&#xae;" horiz-adv-x="811" 
d="M405 728q153 0 261 -107.5t108 -260.5t-108 -261t-261 -108q-149 0 -258.5 110t-109.5 259q0 152 108 260t260 108zM711 358q0 131 -87.5 220.5t-218.5 89.5q-127 0 -216.5 -90.5t-89.5 -217.5q0 -125 90 -217t215 -92q128 0 217.5 89.5t89.5 217.5zM253 570h168
q160 0 160 -111q0 -88 -87 -107q9 -3 19 -14q29 -32 43 -87q18 -73 27 -92h-95q-1 2 -5 13q-5 16 -14 48q-3 13 -10 39q-12 34 -33 56q-10 11 -20 11h-62v-167h-91v411zM344 511v-126h63q82 0 82 67q0 36 -25 50q-17 9 -56 9h-64z" />
    <glyph glyph-name="degree" unicode="&#xb0;" horiz-adv-x="361" 
d="M322 567q0 -59 -41 -100.5t-100 -41.5q-58 0 -100 42t-42 100q0 59 41.5 100t100.5 41t100 -41t41 -100zM259 567q0 34 -22 56t-56 22q-33 0 -55.5 -22.5t-22.5 -55.5q0 -32 23 -55.5t55 -23.5q34 0 56 22.5t22 56.5z" />
    <glyph glyph-name="plusminus" unicode="&#xb1;" horiz-adv-x="714" 
d="M628 302h-214v-130h-113v130h-214v113h214v130h113v-130h214v-113zM628 7h-541v113h541v-113z" />
    <glyph glyph-name="mu" unicode="&#xb5;" horiz-adv-x="594" 
d="M558 535l-39 -377l-6 -58q0 -27 26 -27l-7 -73q-27 -3 -74 -3q-13 0 -33 3q-13 2 -29 7q-4 20 -10 51q-37 -66 -114 -66q-70 0 -105 56l-27 -246h-131l78 733h131l-31 -302q-3 -29 -3 -40q0 -94 90 -94q58 0 92 48q27 40 33 103l28 285h131z" />
    <glyph glyph-name="mu" unicode="&#x3bc;" horiz-adv-x="594" 
d="M558 535l-39 -377l-6 -58q0 -27 26 -27l-7 -73q-27 -3 -74 -3q-13 0 -33 3q-13 2 -29 7q-4 20 -10 51q-37 -66 -114 -66q-70 0 -105 56l-27 -246h-131l78 733h131l-31 -302q-3 -29 -3 -40q0 -94 90 -94q58 0 92 48q27 40 33 103l28 285h131z" />
    <glyph glyph-name="paragraph" unicode="&#xb6;" horiz-adv-x="594" 
d="M533 647h-55v-696h-89v696h-91v-696h-90v415q-84 2 -137 46q-58 49 -58 130q0 91 62 140q56 44 149 44h309v-79z" />
    <glyph glyph-name="periodcentered" unicode="&#xb7;" horiz-adv-x="298" 
d="M215 234h-133v144h133v-144z" />
    <glyph glyph-name="periodcentered" unicode="&#x2219;" horiz-adv-x="298" 
d="M215 234h-133v144h133v-144z" />
    <glyph glyph-name="guillemotright" unicode="&#xbb;" horiz-adv-x="470" 
d="M341 305l-119 155h109l123 -155l-123 -153h-110zM145 305l-120 155h111l123 -155l-123 -153h-111z" />
    <glyph glyph-name="afii10023" unicode="&#x401;" horiz-adv-x="508" 
d="M416 788h-123v123h123v-123zM214 788h-122v123h122v-123zM451 0h-387v720h387v-128h-243v-163h240v-129h-240v-169h243v-131z" />
    <glyph glyph-name="afii10017" unicode="&#x410;" horiz-adv-x="674" 
d="M683 0h-156l-57 156h-267l-58 -156h-154l285 720h123zM427 278l-89 265l-91 -265h180z" />
    <glyph glyph-name="afii10018" unicode="&#x411;" horiz-adv-x="553" 
d="M524 222q0 -114 -77 -171q-68 -51 -186 -51h-197v720h411v-129h-272v-145h57q264 0 264 -224zM384 222q0 57 -35 81q-29 19 -90 19h-56v-194h56q125 0 125 94z" />
    <glyph glyph-name="afii10019" unicode="&#x412;" horiz-adv-x="577" 
d="M545 221q0 -221 -265 -221h-216v720h211q103 0 163 -43q69 -49 69 -148q0 -97 -81 -142q119 -38 119 -166zM366 514q0 77 -98 77h-64v-163h52q71 0 96 34q14 19 14 52zM203 315v-185h86q115 0 115 90q0 95 -113 95h-88z" />
    <glyph glyph-name="afii10020" unicode="&#x413;" horiz-adv-x="453" 
d="M441 591h-233v-591h-144v720h377v-129z" />
    <glyph glyph-name="afii10021" unicode="&#x414;" horiz-adv-x="679" 
d="M675 -141h-132v141h-406v-141h-132v271h60l196 590h157l196 -590h61v-271zM471 130l-131 415l-132 -415h263z" />
    <glyph glyph-name="afii10022" unicode="&#x415;" horiz-adv-x="508" 
d="M451 0h-387v720h387v-128h-243v-163h240v-129h-240v-169h243v-131z" />
    <glyph glyph-name="afii10024" unicode="&#x416;" horiz-adv-x="910" 
d="M908 720l-247 -358l252 -362h-178l-210 342v-342h-140v342l-210 -342h-178l251 362l-247 358h164l220 -343v343h140v-343l220 343h163z" />
    <glyph glyph-name="afii10025" unicode="&#x417;" horiz-adv-x="571" 
d="M535 205q0 -94 -79 -158q-75 -61 -171 -61q-103 0 -174 61q-76 63 -78 164h148q3 -45 32 -70t74 -25q47 0 74.5 25.5t27.5 72.5q0 49 -32.5 76t-82.5 27q-6 3 -14 3q-18 0 -58 -3v111h57q47 0 78.5 24t31.5 69q0 37 -24.5 60t-61.5 23q-85 0 -85 -85h-145q0 94 69 156
q66 59 161 59q96 0 160 -49q71 -54 71 -147q0 -111 -104 -156q125 -52 125 -177z" />
    <glyph glyph-name="afii10026" unicode="&#x418;" horiz-adv-x="712" 
d="M648 0h-142v477l-319 -477h-123v720h144v-474l319 474h121v-720z" />
    <glyph glyph-name="afii10027" unicode="&#x419;" horiz-adv-x="712" 
d="M521 920q0 -69 -46 -118.5t-115 -49.5q-68 0 -113.5 50t-45.5 118h94q0 -34 16 -56q18 -25 50 -25q66 0 66 81h94zM648 0h-142v477l-319 -477h-123v720h144v-474l319 474h121v-720z" />
    <glyph glyph-name="afii10028" unicode="&#x41a;" horiz-adv-x="621" 
d="M618 720l-263 -358l267 -362h-173l-231 337v-337h-144v720h144v-340l241 340h159z" />
    <glyph glyph-name="afii10029" unicode="&#x41b;" horiz-adv-x="637" 
d="M641 0h-149l-173 546l-173 -546h-150l244 720h157z" />
    <glyph glyph-name="afii10030" unicode="&#x41c;" horiz-adv-x="878" 
d="M815 720v-720h-139v407q0 24 3 70.5t3 69.5h-2l-192 -547h-98l-192 547h-2q0 -23 3 -69.5t3 -70.5v-407h-139v720h200l176 -522l176 522h200z" />
    <glyph glyph-name="afii10031" unicode="&#x41d;" horiz-adv-x="680" 
d="M616 0h-144v301h-264v-301h-144v720h144v-288h264v288h144v-720z" />
    <glyph glyph-name="afii10032" unicode="&#x41e;" horiz-adv-x="814" 
d="M781 362q0 -158 -108 -267t-266 -109q-156 0 -265 110t-109 266q0 155 110 263.5t265 108.5q156 0 264.5 -108t108.5 -264zM635 363q0 97 -66 167.5t-162 70.5q-95 0 -161.5 -71.5t-66.5 -167.5q0 -97 66 -170t162 -73q100 0 165 73q63 70 63 171z" />
    <glyph glyph-name="afii10033" unicode="&#x41f;" horiz-adv-x="668" 
d="M605 0h-144v589h-253v-589h-144v720h541v-720z" />
    <glyph glyph-name="afii10034" unicode="&#x420;" horiz-adv-x="570" 
d="M554 498q0 -81 -39 -140t-114 -84q-41 -13 -96 -16h-97v-258h-144v720h217q65 0 109 -11q78 -20 121 -75t43 -136zM208 592v-205h74q132 0 132 102q0 103 -128 103h-78z" />
    <glyph glyph-name="afii10035" unicode="&#x421;" horiz-adv-x="782" 
d="M749 225q-43 -111 -132.5 -175t-207.5 -64q-159 0 -267.5 109t-108.5 268q0 156 108.5 263.5t264.5 107.5q122 0 213.5 -64t129.5 -179h-158q-64 110 -186 110q-97 0 -161.5 -69.5t-64.5 -167.5t64 -170q66 -75 163 -75q123 0 183 106h160z" />
    <glyph glyph-name="afii10036" unicode="&#x422;" horiz-adv-x="455" 
d="M443 591h-143v-591h-144v591h-142v129h429v-129z" />
    <glyph glyph-name="afii10037" unicode="&#x423;" horiz-adv-x="627" 
d="M633 720l-302 -720h-148l69 165l-250 555h152l167 -384l161 384h151z" />
    <glyph glyph-name="afii10038" unicode="&#x424;" horiz-adv-x="802" 
d="M330 720h141v-102h46q119 0 186 -59q71 -62 71 -179q0 -83 -37 -144q-40 -65 -115 -93q-49 -18 -151 -18v-125h-141v125q-101 0 -150 18q-75 28 -115 93q-38 61 -38 144q0 116 71 179q68 59 186 59h46v102zM503 489h-33v-236h32q60 0 96 29.5t36 88.5q0 58 -35.5 88
t-95.5 30zM298 489q-59 0 -94 -29q-37 -32 -37 -89q0 -59 36 -88.5t96 -29.5h32v236h-33z" />
    <glyph glyph-name="afii10039" unicode="&#x425;" horiz-adv-x="666" 
d="M662 0h-165l-166 268l-164 -268h-163l246 374l-228 346h165l148 -242l144 242h166l-227 -348z" />
    <glyph glyph-name="afii10040" unicode="&#x426;" horiz-adv-x="677" 
d="M674 -141h-132v141h-476v720h144v-590h253v590h144v-590h67v-271z" />
    <glyph glyph-name="afii10041" unicode="&#x427;" horiz-adv-x="592" 
d="M528 0h-144v277q-81 -19 -123 -19q-105 0 -164 63t-59 169v230h138v-229q0 -104 102 -104q54 0 106 19v314h144v-720z" />
    <glyph glyph-name="afii10042" unicode="&#x428;" horiz-adv-x="953" 
d="M888 0h-823v720h144v-590h202v590h130v-590h203v590h144v-720z" />
    <glyph glyph-name="afii10043" unicode="&#x429;" horiz-adv-x="958" 
d="M955 -141h-132v141h-758v720h144v-590h202v590h130v-590h203v590h144v-590h67v-271z" />
    <glyph glyph-name="afii10044" unicode="&#x42a;" horiz-adv-x="636" 
d="M607 222q0 -114 -77 -171q-68 -51 -186 -51h-200v591h-132v129h275v-274h57q263 0 263 -224zM467 222q0 57 -35 81q-29 19 -90 19h-55v-194h55q125 0 125 94z" />
    <glyph glyph-name="afii10045" unicode="&#x42b;" horiz-adv-x="783" 
d="M720 0h-144v720h144v-720zM522 222q0 -113 -78 -171q-69 -51 -186 -51h-194v720h144v-274q106 0 154 -12q160 -40 160 -212zM381 222q0 57 -35 81q-29 19 -90 19h-48v-194h48q125 0 125 94z" />
    <glyph glyph-name="afii10046" unicode="&#x42c;" horiz-adv-x="556" 
d="M528 222q0 -114 -76 -171q-68 -51 -186 -51h-202v720h144v-274h57q263 0 263 -224zM389 222q0 57 -35 81q-29 19 -90 19h-56v-194h56q125 0 125 94z" />
    <glyph glyph-name="afii10047" unicode="&#x42d;" horiz-adv-x="775" 
d="M742 363q0 -163 -106.5 -270t-269.5 -107q-111 0 -199.5 58.5t-133.5 160.5h165q61 -86 171 -86q83 0 144.5 50.5t73.5 131.5h-293v123h294q-12 79 -74 128t-144 49q-111 0 -174 -88h-163q42 105 132 163t205 58q161 0 266.5 -105.5t105.5 -265.5z" />
    <glyph glyph-name="afii10048" unicode="&#x42e;" horiz-adv-x="1032" 
d="M643 734q151 0 255 -111q101 -108 101 -261q0 -154 -102 -265t-255 -111q-132 0 -230.5 91t-118.5 224h-85v-301h-144v720h144v-288h87q25 129 120 214q99 88 228 88zM855 363q0 94 -59 164q-62 75 -154 75q-91 0 -153 -76q-58 -70 -58 -164t57 -167q62 -77 154 -77
q96 0 157 76q56 70 56 169z" />
    <glyph glyph-name="afii10049" unicode="&#x42f;" horiz-adv-x="609" 
d="M545 0h-144v286l-199 -286h-170l198 261q-83 8 -135.5 71.5t-52.5 147.5q0 115 74 179q70 61 186 61h243v-720zM405 360v231h-78q-145 0 -145 -116q0 -115 146 -115h77z" />
    <glyph glyph-name="afii10065" unicode="&#x430;" horiz-adv-x="633" 
d="M579 0h-128v61q-59 -75 -162 -75q-114 0 -186.5 79t-72.5 195q0 115 72 194t186 79q105 0 161 -71v56h130v-518zM453 257q0 66 -43 112.5t-108 46.5q-64 0 -105 -46t-41 -110q0 -63 42.5 -110.5t105.5 -47.5q61 0 105 47t44 108z" />
    <glyph glyph-name="afii10066" unicode="&#x431;" horiz-adv-x="608" 
d="M581 255q0 -125 -75 -197t-200 -72q-131 0 -202 86q-65 80 -65 214v90q0 173 77 267q84 102 253 102h181v-104h-201q-92 0 -141 -53t-48 -145v-4q55 78 177 78q115 0 181 -74q63 -72 63 -188zM306 102q66 0 104 40.5t38 107.5q0 65 -37 107.5t-101 42.5t-103 -42.5
t-39 -107.5q0 -148 138 -148z" />
    <glyph glyph-name="afii10067" unicode="&#x432;" horiz-adv-x="511" 
d="M479 149q0 -149 -208 -149h-216v518h215q184 0 184 -139q0 -70 -64 -104v-1q89 -37 89 -125zM326 369q0 52 -70 52h-73v-112h70q73 0 73 60zM341 155q0 64 -81 64h-77v-119h83q75 0 75 55z" />
    <glyph glyph-name="afii10068" unicode="&#x433;" horiz-adv-x="378" 
d="M361 410h-176v-410h-130v518h306v-108z" />
    <glyph glyph-name="afii10069" unicode="&#x434;" horiz-adv-x="536" 
d="M533 -109h-110v109h-310v-109h-108v216h56l139 411h137l139 -411h57v-216zM349 107l-81 257l-80 -257h161z" />
    <glyph glyph-name="afii10070" unicode="&#x435;" horiz-adv-x="594" 
d="M419 163h132q-72 -178 -252 -178q-119 0 -195 77.5t-76 196.5q0 115 77 195t192 80q88 0 154.5 -46t96.5 -129q19 -52 19 -141h-413q21 -123 146 -123q48 0 72 11q32 16 47 57zM439 313q-25 110 -140 110q-112 0 -142 -110h282z" />
    <glyph glyph-name="afii10072" unicode="&#x436;" horiz-adv-x="757" 
d="M761 518l-190 -251l192 -267h-153l-169 254v-254h-125v254l-168 -254h-154l192 267l-189 251h144l175 -246v246h125v-246l176 246h144z" />
    <glyph glyph-name="afii10073" unicode="&#x437;" horiz-adv-x="502" 
d="M472 147q0 -79 -77 -124q-64 -37 -150 -37q-88 0 -148 43q-67 47 -73 131h127q2 -34 31 -52q25 -15 62 -15q100 0 100 60q0 46 -52 59q-25 7 -88 7v92q57 0 80 6q46 13 46 54q0 59 -78 59q-83 0 -83 -58h-123q11 162 205 162q83 0 138 -34q65 -40 65 -118q0 -74 -76 -107
q94 -31 94 -128z" />
    <glyph glyph-name="afii10074" unicode="&#x438;" horiz-adv-x="581" 
d="M527 0h-130v330l-226 -330h-117v518h130v-323l226 323h117v-518z" />
    <glyph glyph-name="afii10075" unicode="&#x439;" horiz-adv-x="581" 
d="M440 698q0 -63 -42 -108.5t-105 -45.5q-62 0 -104.5 45.5t-42.5 108.5h81q0 -31 18 -54.5t48 -23.5q31 0 48.5 23t17.5 55h81zM527 0h-130v330l-226 -330h-117v518h130v-323l226 323h117v-518z" />
    <glyph glyph-name="afii10076" unicode="&#x43a;" horiz-adv-x="507" 
d="M511 0h-154l-174 254v-254h-128v518h128v-239l180 239h144l-195 -251z" />
    <glyph glyph-name="afii10077" unicode="&#x43b;" horiz-adv-x="498" 
d="M494 0h-131l-115 352l-115 -352h-129l183 518h123z" />
    <glyph glyph-name="afii10078" unicode="&#x43c;" horiz-adv-x="712" 
d="M657 0h-124l3 334l-135 -334h-90l-134 334l3 -334h-125v518h168l133 -359l133 359h168v-518z" />
    <glyph glyph-name="afii10079" unicode="&#x43d;" horiz-adv-x="563" 
d="M508 0h-130v213h-194v-213h-130v518h130v-203h194v203h130v-518z" />
    <glyph glyph-name="afii10080" unicode="&#x43e;" horiz-adv-x="612" 
d="M160 259q0 -67 39.5 -110.5t106.5 -43.5t106.5 43.5t39.5 110.5q0 69 -39 112.5t-107 43.5q-67 0 -106.5 -44t-39.5 -112zM585 262q0 -122 -78.5 -199t-200.5 -77t-200.5 77.5t-78.5 198.5q0 118 80.5 195t198.5 77q119 0 199 -77t80 -195z" />
    <glyph glyph-name="afii10081" unicode="&#x43f;" horiz-adv-x="557" 
d="M503 0h-130v411h-189v-411h-130v518h449v-518z" />
    <glyph glyph-name="afii10082" unicode="&#x440;" horiz-adv-x="633" 
d="M603 256q0 -111 -72 -191t-182 -80q-99 0 -165 70v-277h-130v740h125v-63q64 77 166 77q116 0 188 -81q70 -77 70 -195zM477 258q0 66 -42.5 111.5t-107.5 45.5q-62 0 -104 -46t-42 -109q0 -66 41 -112t106 -46q62 0 105.5 47t43.5 109z" />
    <glyph glyph-name="afii10083" unicode="&#x441;" horiz-adv-x="588" 
d="M562 187q-23 -95 -93 -148.5t-169 -53.5q-119 0 -196 77.5t-77 196.5q0 121 75.5 197.5t196.5 76.5q102 0 170 -50q71 -53 92 -151h-130q-39 84 -136 84q-67 0 -104 -44.5t-37 -112.5q0 -66 40.5 -111.5t105.5 -45.5q100 0 131 85h131z" />
    <glyph glyph-name="afii10084" unicode="&#x442;" horiz-adv-x="382" 
d="M376 410h-120v-410h-130v410h-120v108h370v-108z" />
    <glyph glyph-name="afii10085" unicode="&#x443;" horiz-adv-x="520" 
d="M522 518l-283 -740h-131l95 243l-199 497h134l129 -344l122 344h133z" />
    <glyph glyph-name="afii10086" unicode="&#x444;" horiz-adv-x="907" 
d="M879 259q0 -114 -62 -191q-68 -82 -179 -82q-71 0 -119 31v-239h-131v239q-47 -31 -119 -31q-111 0 -178 83q-63 77 -63 190q0 116 59 192q64 83 177 83q67 0 124 -36v272h131v-272q61 36 124 36q114 0 178 -83q58 -75 58 -192zM626 418q-72 0 -107 -49v-220
q37 -47 101 -47t101 48q34 44 34 110q0 65 -32 109q-35 49 -97 49zM388 149v220q-35 49 -106 49q-62 0 -97 -49q-32 -44 -32 -109q0 -64 34 -109q38 -49 100 -49t101 47z" />
    <glyph glyph-name="afii10087" unicode="&#x445;" horiz-adv-x="516" 
d="M0 0l183 275l-169 243h146l98 -156l98 156h146l-169 -243l183 -275h-147l-111 178l-111 -178h-147z" />
    <glyph glyph-name="afii10088" unicode="&#x446;" horiz-adv-x="562" 
d="M560 -109h-109v109h-395v518h130v-411h189v411h129v-411h56v-216z" />
    <glyph glyph-name="afii10089" unicode="&#x447;" horiz-adv-x="516" 
d="M461 0h-130v219q-56 -27 -135 -27q-73 0 -116 41t-43 114v171h126v-154q0 -70 65 -70q57 0 103 22v202h130v-518z" />
    <glyph glyph-name="afii10090" unicode="&#x448;" horiz-adv-x="807" 
d="M752 0h-697v518h126v-411h164v411h117v-411h164v411h126v-518z" />
    <glyph glyph-name="afii10091" unicode="&#x449;" horiz-adv-x="811" 
d="M808 -109h-109v109h-641v518h125v-411h164v411h117v-411h164v411h125v-411h55v-216z" />
    <glyph glyph-name="afii10092" unicode="&#x44a;" horiz-adv-x="563" 
d="M531 159q0 -84 -62 -125q-52 -34 -141 -34h-202v411h-114v107h242v-197q117 0 153 -8q124 -27 124 -154zM254 220v-119h69q75 0 75 58q0 61 -80 61h-64z" />
    <glyph glyph-name="afii10093" unicode="&#x44b;" horiz-adv-x="694" 
d="M640 0h-131v518h131v-518zM460 159q0 -84 -62 -125q-52 -34 -141 -34h-203v518h129v-197q90 0 127 -5q150 -20 150 -157zM246 220h-63v-119h69q75 0 75 58q0 61 -81 61z" />
    <glyph glyph-name="afii10094" unicode="&#x44c;" horiz-adv-x="501" 
d="M470 159q0 -84 -63 -125q-52 -34 -141 -34h-211v518h130v-197q134 0 188 -19q97 -34 97 -143zM185 220v-119h76q76 0 76 58q0 61 -82 61h-70z" />
    <glyph glyph-name="afii10095" unicode="&#x44d;" horiz-adv-x="582" 
d="M555 259q0 -121 -76 -197.5t-197 -76.5q-94 0 -163 50t-94 140h133q24 -73 124 -73q50 0 89 30t52 79h-181v98h181q-9 49 -46.5 78t-88.5 29q-103 0 -128 -70h-134q24 89 95 139q68 48 162 48q120 0 196 -77t76 -197z" />
    <glyph glyph-name="afii10096" unicode="&#x44e;" horiz-adv-x="792" 
d="M495 535q120 0 194.5 -76.5t74.5 -196.5q0 -117 -75 -196t-192 -79q-100 0 -173 63.5t-85 162.5h-55v-213h-130v518h130v-203h56q14 96 86 158t169 62zM638 259q0 67 -38 113.5t-103 46.5q-63 0 -102 -50q-37 -46 -37 -110q0 -63 37 -108q40 -48 102 -48q64 0 104 47
q37 44 37 109z" />
    <glyph glyph-name="afii10097" unicode="&#x44f;" horiz-adv-x="498" 
d="M444 0h-130v221l-162 -221h-149l160 206q-134 29 -134 153q0 83 61 124q51 35 139 35h215v-518zM314 290v127h-76q-76 0 -76 -60q0 -67 82 -67h70z" />
    <glyph glyph-name="afii10071" unicode="&#x451;" horiz-adv-x="594" 
d="M459 596h-118v118h118v-118zM254 596h-117v118h117v-118zM296 534q120 0 195 -83.5t75 -204.5q0 -4 -12 -14q-15 -11 -17 -14h-384q12 -55 51 -88t95 -33q77 0 119 66h132q-33 -81 -100 -129.5t-152 -48.5q-112 0 -191.5 80.5t-79.5 193.5q0 111 79 193t190 82zM438 313
q-30 110 -140 110q-112 0 -142 -110h282z" />
    <glyph glyph-name="endash" unicode="&#x2013;" horiz-adv-x="500" 
d="M506 234h-512v116h512v-116z" />
    <glyph glyph-name="emdash" unicode="&#x2014;" horiz-adv-x="1000" 
d="M1006 234h-1012v116h1012v-116z" />
    <glyph glyph-name="quoteleft" unicode="&#x2018;" horiz-adv-x="270" 
d="M202 445h-134v156q0 95 76 117q19 2 58 9v-76q-36 -3 -45 -14.5t-9 -50.5h54v-141z" />
    <glyph glyph-name="quoteright" unicode="&#x2019;" horiz-adv-x="270" 
d="M202 720v-155q0 -98 -77 -119q-19 -2 -57 -8v75q37 2 46 13t9 51h-55v143h134z" />
    <glyph glyph-name="quotesinglbase" unicode="&#x201a;" horiz-adv-x="270" 
d="M68 141h133v-158q0 -60 -36 -92t-97 -32v75q35 0 46 16q9 13 9 50h-55v141z" />
    <glyph glyph-name="quotedblleft" unicode="&#x201c;" horiz-adv-x="470" 
d="M403 445h-134v156q0 94 76 117q19 2 58 9v-76q-36 -3 -45.5 -15t-9.5 -50h55v-141zM201 445h-134v156q0 94 76 117q19 2 58 9v-76q-36 -3 -45 -14.5t-9 -50.5h54v-141z" />
    <glyph glyph-name="quotedblright" unicode="&#x201d;" horiz-adv-x="470" 
d="M403 720v-155q0 -97 -77 -119q-19 -2 -57 -8v75q37 2 46 13t9 51h-55v143h134zM201 720v-155q0 -98 -77 -119q-19 -2 -57 -8v75q37 2 46 13t9 51h-55v143h134z" />
    <glyph glyph-name="quotedblbase" unicode="&#x201e;" horiz-adv-x="470" 
d="M67 141h133v-158q0 -60 -36 -92t-97 -32v75q35 0 46 16q9 13 9 50h-55v141zM269 141h133v-158q0 -60 -36 -92t-97 -32v75q35 0 46 16q9 13 9 50h-55v141z" />
    <glyph glyph-name="dagger" unicode="&#x2020;" horiz-adv-x="579" 
d="M517 426h-164v-602h-127v602h-163v110h163v184h127v-184h164v-110z" />
    <glyph glyph-name="bullet" unicode="&#x2022;" horiz-adv-x="658" 
d="M329 223q-60 0 -104 44.5t-44 104.5q0 61 43.5 104t104.5 43q62 0 105 -42.5t43 -104.5t-43.5 -105.5t-104.5 -43.5z" />
    <glyph glyph-name="ellipsis" unicode="&#x2026;" horiz-adv-x="993" 
d="M893 0h-133v144h133v-144zM563 0h-133v144h133v-144zM232 0h-133v144h133v-144z" />
    <glyph glyph-name="perthousand" unicode="&#x2030;" horiz-adv-x="1268" 
d="M1230 162q0 -72 -52 -124t-124 -52t-124 52t-52 124q0 74 51 125t125 51q72 0 124 -52t52 -124zM650 338q73 0 124 -51.5t51 -124.5q0 -72 -52 -124t-124 -52t-124 52t-52 124q0 74 51.5 125t125.5 51zM647 727l-342 -735h-92l342 735h92zM390 559q0 -73 -52 -124
t-125 -51q-71 0 -123 52t-52 123q0 72 52 124t124 52t124 -52t52 -124zM1134 162q0 34 -24 58t-58 24t-58 -24t-24 -58t24 -58.5t58 -24.5t58 24.5t24 58.5zM729 162q0 35 -23 58.5t-58 23.5q-34 0 -58 -24t-24 -58t24 -58.5t58 -24.5t57.5 24.5t23.5 58.5zM294 559
q0 36 -23 59t-59 23q-35 0 -58.5 -23.5t-23.5 -58.5t23.5 -58t58.5 -23t58.5 23t23.5 58z" />
    <glyph glyph-name="guilsinglleft" unicode="&#x2039;" horiz-adv-x="298" 
d="M150 305l120 -153h-110l-123 153l123 155h109z" />
    <glyph glyph-name="guilsinglright" unicode="&#x203a;" horiz-adv-x="298" 
d="M148 305l-119 155h109l123 -155l-123 -153h-110z" />
    <glyph glyph-name="afii61352" unicode="&#x2116;" horiz-adv-x="1171" 
d="M1114 356q0 -85 -60 -144.5t-145 -59.5q-83 0 -144 59.5t-61 142.5q0 84 59.5 143t143.5 59q86 0 146.5 -57.5t60.5 -142.5zM1100 0h-383v99h383v-99zM647 0h-129l-320 502l4 -502h-138v720h134l315 -498l-3 498h137v-720zM908 455q-43 0 -70 -29t-27 -72q0 -42 28 -71
t70 -29q43 0 70 28.5t27 71.5q0 45 -26.5 73t-71.5 28z" />
    <glyph glyph-name="trademark" unicode="&#x2122;" horiz-adv-x="904" 
d="M774 372h-80v255l-83 -255h-55l-86 255v-255h-81v349h115l80 -232l77 232h113v-349zM331 649h-88v-277h-83v277h-89v72h260v-72z" />
    <glyph glyph-name="u0000" horiz-adv-x="1000" 
 />
    <glyph glyph-name="u0001" horiz-adv-x="1000" 
 />
    </font>
</defs>
</svg>
