<svg width="484" height="277" viewBox="0 0 484 277" fill="none" xmlns="http://www.w3.org/2000/svg">
<path d="M0 13L20.42 23.7869L19.5518 0.709258L0 13ZM132 198H134H132ZM484 263L463.094 253.187L465.049 276.198L484 263ZM3.95504 14.8526C5.05895 14.8144 5.92285 13.8885 5.88462 12.7846C5.84639 11.6807 4.92051 10.8168 3.8166 10.855L3.95504 14.8526ZM11.4935 10.6189C10.3893 10.6491 9.51869 11.5687 9.54889 12.6728C9.57909 13.777 10.4987 14.6476 11.6028 14.6174L11.4935 10.6189ZM19.4528 14.4261C20.5571 14.4023 21.433 13.4878 21.4093 12.3835C21.3855 11.2792 20.471 10.4033 19.3667 10.427L19.4528 14.4261ZM27.2038 10.2789C26.0994 10.2969 25.2187 11.2069 25.2368 12.3113C25.2548 13.4157 26.1648 14.2964 27.2692 14.2783L27.2038 10.2789ZM35.0992 14.1697C36.2037 14.1571 37.0888 13.2515 37.0762 12.147C37.0635 11.0425 36.1579 10.1574 35.0534 10.17L35.0992 14.1697ZM42.9595 10.0986C41.8549 10.1059 40.9655 11.0073 40.9728 12.1118C40.9802 13.2164 41.8815 14.1058 42.9861 14.0985L42.9595 10.0986ZM50.8189 14.0648C51.9234 14.0627 52.8171 13.1655 52.8149 12.0609C52.8128 10.9564 51.9156 10.0627 50.811 10.0648L50.8189 14.0648ZM58.5949 10.0677C57.4903 10.0647 56.5925 10.9577 56.5895 12.0623C56.5865 13.1669 57.4796 14.0647 58.5841 14.0677L58.5949 10.0677ZM66.4692 14.1076C67.5737 14.1158 68.4758 13.227 68.484 12.1225C68.4922 11.018 67.6035 10.1159 66.4989 10.1077L66.4692 14.1076ZM74.3095 10.1842C73.205 10.1708 72.2987 11.0552 72.2853 12.1597C72.2718 13.2642 73.1562 14.1705 74.2607 14.1839L74.3095 10.1842ZM82.0815 14.2982C83.1859 14.317 84.0965 13.437 84.1153 12.3325C84.1341 11.2281 83.2541 10.3176 82.1497 10.2988L82.0815 14.2982ZM90.0261 10.4526C88.9218 10.4282 88.0068 11.3037 87.9825 12.408C87.9581 13.5123 88.8336 14.4273 89.9379 14.4516L90.0261 10.4526ZM97.7207 14.6429C98.8248 14.6728 99.7442 13.802 99.7742 12.6978C99.8041 11.5937 98.9333 10.6743 97.8291 10.6443L97.7207 14.6429ZM105.725 10.8794C104.621 10.8436 103.697 11.7095 103.661 12.8135C103.625 13.9175 104.491 14.8415 105.595 14.8773L105.725 10.8794ZM113.362 15.1503C114.466 15.1921 115.395 14.3312 115.437 13.2275C115.478 12.1237 114.618 11.195 113.514 11.1532L113.362 15.1503ZM121.4 11.4743C120.296 11.4262 119.363 12.2818 119.315 13.3853C119.267 14.4888 120.122 15.4224 121.226 15.4705L121.4 11.4743ZM128.997 15.832C130.1 15.8866 131.039 15.0365 131.094 13.9333C131.148 12.8301 130.298 11.8915 129.195 11.8369L128.997 15.832ZM137.061 12.2504C135.958 12.189 135.015 13.0332 134.953 14.1361C134.892 15.239 135.736 16.1828 136.839 16.2442L137.061 12.2504ZM144.62 16.7027C145.723 16.7712 146.672 15.9331 146.74 14.8307C146.809 13.7282 145.971 12.7789 144.868 12.7104L144.62 16.7027ZM152.717 13.2251C151.615 13.149 150.66 13.9806 150.584 15.0826C150.508 16.1845 151.339 17.1395 152.441 17.2156L152.717 13.2251ZM160.227 17.7809C161.329 17.8648 162.289 17.0401 162.373 15.9387C162.457 14.8373 161.633 13.8764 160.531 13.7924L160.227 17.7809ZM168.36 14.419C167.26 14.3267 166.292 15.1441 166.2 16.2448C166.108 17.3455 166.925 18.3127 168.026 18.405L168.36 14.419ZM175.813 19.0898C176.913 19.191 177.887 18.3814 177.988 17.2815C178.089 16.1816 177.28 15.2079 176.18 15.1066L175.813 19.0898ZM183.986 15.8587C182.887 15.748 181.906 16.5491 181.796 17.6482C181.685 18.7472 182.486 19.7278 183.585 19.8385L183.986 15.8587ZM191.37 20.6586C192.468 20.7794 193.456 19.9873 193.577 18.8894C193.698 17.7915 192.906 16.8034 191.808 16.6826L191.37 20.6586ZM199.589 17.5774C198.492 17.4457 197.496 18.228 197.364 19.3247C197.233 20.4214 198.015 21.4172 199.112 21.5488L199.589 17.5774ZM206.889 22.5244C207.984 22.6678 208.988 21.8963 209.132 20.801C209.275 19.7058 208.504 18.7017 207.408 18.5583L206.889 22.5244ZM215.161 19.6184C214.067 19.4624 213.054 20.2223 212.898 21.3158C212.742 22.4093 213.502 23.4222 214.596 23.5783L215.161 19.6184ZM222.354 24.7352C223.446 24.9051 224.468 24.1581 224.638 23.0667C224.808 21.9752 224.061 20.9527 222.97 20.7828L222.354 24.7352ZM230.693 22.039C229.604 21.8541 228.571 22.5869 228.386 23.6759C228.201 24.7648 228.934 25.7976 230.023 25.9825L230.693 22.039ZM237.744 27.354C238.83 27.5557 239.874 26.8388 240.075 25.7528C240.277 24.6668 239.56 23.6229 238.474 23.4212L237.744 27.354ZM246.169 24.9165C245.086 24.6965 244.031 25.3956 243.811 26.478C243.59 27.5604 244.29 28.6163 245.372 28.8363L246.169 24.9165ZM253.02 30.4659C254.098 30.7066 255.167 30.0278 255.408 28.9497C255.649 27.8717 254.97 26.8027 253.892 26.562L253.02 30.4659ZM261.557 28.3582C260.484 28.0944 259.401 28.75 259.137 29.8226C258.873 30.8952 259.529 31.9786 260.601 32.2425L261.557 28.3582ZM268.119 34.1875C269.185 34.4776 270.284 33.8488 270.574 32.783C270.864 31.7172 270.235 30.618 269.169 30.3279L268.119 34.1875ZM276.792 32.5174C275.735 32.197 274.619 32.7941 274.298 33.8512C273.978 34.9082 274.575 36.0249 275.632 36.3454L276.792 32.5174ZM282.952 38.6935C283.998 39.0487 285.134 38.4888 285.489 37.4429C285.844 36.397 285.284 35.2612 284.238 34.906L282.952 38.6935ZM291.744 37.6188C290.713 37.222 289.556 37.7359 289.159 38.7667C288.762 39.7976 289.276 40.9549 290.307 41.3518L291.744 37.6188ZM297.469 44.3031C298.48 44.7493 299.661 44.292 300.107 43.2816C300.553 42.2711 300.096 41.0903 299.085 40.644L297.469 44.3031ZM306.198 44.0317C305.216 43.5262 304.01 43.9127 303.505 44.8948C302.999 45.877 303.386 47.0829 304.368 47.5883L306.198 44.0317ZM311.085 51.3624C312.026 51.9414 313.258 51.6483 313.837 50.7076C314.416 49.7669 314.123 48.535 313.182 47.956L311.085 51.3624ZM319.842 52.5076C318.964 51.8374 317.709 52.006 317.038 52.8841C316.368 53.7621 316.537 55.0172 317.415 55.6873L319.842 52.5076ZM323.123 60.6441C323.904 61.4248 325.171 61.4243 325.952 60.6429C326.732 59.8616 326.732 58.5953 325.95 57.8145L323.123 60.6441ZM331.211 64.0483C330.58 63.1418 329.334 62.9185 328.427 63.5496C327.52 64.1807 327.297 65.4272 327.928 66.3337L331.211 64.0483ZM331.436 72.7717C331.848 73.7967 333.012 74.2942 334.037 73.8828C335.062 73.4714 335.56 72.3068 335.148 71.2818L331.436 72.7717ZM337.235 79.2914C337.096 78.1957 336.094 77.4207 334.998 77.5603C333.903 77.7 333.128 78.7014 333.267 79.7971L337.235 79.2914ZM333.339 87.4666C333.247 88.5673 334.064 89.5342 335.165 89.6262C336.266 89.7182 337.233 88.9004 337.325 87.7997L333.339 87.4666ZM335.837 96.09C336.141 95.028 335.526 93.921 334.464 93.6174C333.402 93.3139 332.295 93.9287 331.991 94.9908L335.837 96.09ZM329.11 101.993C328.574 102.959 328.924 104.176 329.89 104.711C330.856 105.247 332.073 104.897 332.609 103.931L329.11 101.993ZM327.661 110.845C328.4 110.024 328.334 108.76 327.513 108.02C326.693 107.281 325.428 107.347 324.689 108.168L327.661 110.845ZM319.017 113.317C318.134 113.981 317.956 115.234 318.62 116.117C319.284 117 320.537 117.178 321.42 116.515L319.017 113.317ZM314.369 121.002C315.341 120.476 315.702 119.263 315.176 118.291C314.65 117.32 313.437 116.959 312.465 117.484L314.369 121.002ZM305.352 120.819C304.329 121.236 303.837 122.403 304.253 123.426C304.67 124.449 305.836 124.941 306.86 124.524L305.352 120.819ZM299.103 127.306C300.157 126.973 300.741 125.849 300.408 124.796C300.075 123.743 298.951 123.159 297.898 123.492L299.103 127.306ZM290.238 125.653C289.167 125.923 288.517 127.01 288.787 128.081C289.057 129.152 290.144 129.802 291.215 129.532L290.238 125.653ZM283.254 131.344C284.336 131.121 285.033 130.064 284.81 128.982C284.587 127.9 283.53 127.203 282.448 127.426L283.254 131.344ZM274.572 128.906C273.484 129.093 272.753 130.127 272.94 131.216C273.128 132.304 274.162 133.035 275.25 132.848L274.572 128.906ZM267.222 134.126C268.315 133.964 269.07 132.948 268.908 131.855C268.747 130.762 267.73 130.007 266.638 130.169L267.222 134.126ZM258.662 131.275C257.567 131.418 256.795 132.422 256.938 133.518C257.082 134.613 258.086 135.384 259.181 135.241L258.662 131.275ZM251.136 136.247C252.233 136.115 253.015 135.12 252.883 134.023C252.751 132.926 251.755 132.144 250.659 132.276L251.136 136.247ZM242.64 133.216C241.543 133.343 240.756 134.335 240.882 135.432C241.009 136.529 242.001 137.316 243.098 137.19L242.64 133.216ZM235.075 138.11C236.173 137.984 236.96 136.992 236.834 135.895C236.707 134.797 235.715 134.01 234.618 134.137L235.075 138.11ZM226.583 135.078C225.486 135.21 224.704 136.205 224.835 137.302C224.967 138.399 225.963 139.181 227.059 139.049L226.583 135.078ZM219.057 140.046C220.152 139.904 220.925 138.901 220.782 137.805C220.64 136.71 219.637 135.937 218.541 136.08L219.057 140.046ZM210.503 137.184C209.41 137.343 208.653 138.358 208.812 139.451C208.972 140.544 209.987 141.301 211.08 141.142L210.503 137.184ZM203.14 142.381C204.23 142.199 204.965 141.167 204.782 140.078C204.6 138.989 203.569 138.254 202.479 138.436L203.14 142.381ZM194.481 139.889C193.397 140.103 192.692 141.155 192.905 142.239C193.119 143.322 194.171 144.028 195.254 143.814L194.481 139.889ZM187.441 145.5C188.516 145.246 189.182 144.168 188.928 143.093C188.674 142.018 187.597 141.353 186.522 141.607L187.441 145.5ZM178.624 143.666C177.562 143.971 176.949 145.08 177.255 146.141C177.56 147.203 178.668 147.815 179.73 147.51L178.624 143.666ZM172.153 149.937C173.193 149.566 173.736 148.422 173.365 147.381C172.994 146.341 171.85 145.798 170.81 146.169L172.153 149.937ZM163.165 149.232C162.157 149.685 161.708 150.869 162.162 151.876C162.615 152.884 163.799 153.333 164.806 152.879L163.165 149.232ZM157.802 156.46C158.757 155.905 159.081 154.681 158.526 153.726C157.97 152.771 156.746 152.447 155.791 153.002L157.802 156.46ZM148.858 157.647C147.985 158.323 147.825 159.58 148.501 160.453C149.177 161.326 150.434 161.486 151.307 160.81L148.858 157.647ZM145.573 166.016C146.326 165.208 146.282 163.943 145.474 163.19C144.666 162.436 143.401 162.481 142.647 163.289L145.573 166.016ZM137.488 169.939C136.895 170.871 137.169 172.107 138.101 172.7C139.033 173.293 140.269 173.019 140.862 172.087L137.488 169.939ZM137.371 178.915C137.78 177.889 137.28 176.726 136.254 176.317C135.228 175.907 134.065 176.407 133.655 177.433L137.371 178.915ZM131.241 185.467C131.013 186.547 131.705 187.608 132.785 187.837C133.866 188.065 134.927 187.373 135.155 186.293L131.241 185.467ZM134.125 193.982C134.195 192.879 133.358 191.929 132.256 191.859C131.153 191.789 130.203 192.626 130.133 193.728L134.125 193.982ZM130.218 202.222C130.332 203.321 131.316 204.118 132.414 204.004C133.513 203.889 134.311 202.905 134.196 201.807L130.218 202.222ZM135.752 209.052C135.404 208.003 134.272 207.436 133.224 207.784C132.175 208.131 131.608 209.263 131.955 210.312L135.752 209.052ZM135.386 217.847C135.945 218.8 137.17 219.119 138.123 218.56C139.076 218.001 139.395 216.775 138.836 215.823L135.386 217.847ZM143.237 221.93C142.515 221.094 141.252 221.001 140.416 221.723C139.58 222.444 139.487 223.707 140.208 224.544L143.237 221.93ZM146.038 230.347C146.873 231.07 148.136 230.979 148.859 230.143C149.581 229.308 149.49 228.045 148.655 227.322L146.038 230.347ZM154.705 231.967C153.794 231.342 152.549 231.575 151.925 232.486C151.3 233.397 151.532 234.642 152.443 235.266L154.705 231.967ZM159.264 239.498C160.227 240.041 161.446 239.7 161.989 238.738C162.531 237.775 162.19 236.556 161.228 236.014L159.264 239.498ZM168.14 239.582C167.142 239.109 165.949 239.534 165.476 240.532C165.003 241.53 165.428 242.723 166.426 243.196L168.14 239.582ZM173.826 246.441C174.85 246.856 176.016 246.363 176.432 245.34C176.847 244.316 176.354 243.15 175.331 242.734L173.826 246.441ZM182.555 245.468C181.514 245.1 180.371 245.647 180.004 246.688C179.636 247.73 180.182 248.872 181.224 249.24L182.555 245.468ZM188.837 251.756C189.893 252.082 191.013 251.491 191.339 250.436C191.666 249.381 191.075 248.261 190.02 247.934L188.837 251.756ZM197.537 250.12C196.471 249.829 195.371 250.457 195.08 251.522C194.789 252.588 195.417 253.687 196.482 253.978L197.537 250.12ZM204.172 255.959C205.245 256.219 206.327 255.56 206.587 254.487C206.848 253.414 206.189 252.332 205.115 252.072L204.172 255.959ZM212.817 253.836C211.737 253.603 210.673 254.289 210.44 255.368C210.206 256.448 210.892 257.512 211.972 257.746L212.817 253.836ZM219.706 259.327C220.79 259.537 221.84 258.827 222.049 257.743C222.259 256.658 221.549 255.609 220.465 255.4L219.706 259.327ZM228.265 256.826C227.177 256.638 226.142 257.367 225.954 258.456C225.766 259.544 226.496 260.579 227.584 260.767L228.265 256.826ZM235.355 262.039C236.447 262.208 237.469 261.46 237.638 260.368C237.807 259.277 237.059 258.255 235.967 258.086L235.355 262.039ZM243.811 259.235C242.717 259.083 241.707 259.847 241.556 260.942C241.404 262.036 242.168 263.045 243.263 263.197L243.811 259.235ZM251.075 264.22C252.171 264.356 253.17 263.577 253.305 262.481C253.441 261.385 252.662 260.386 251.566 260.25L251.075 264.22ZM259.433 261.17C258.335 261.049 257.347 261.841 257.226 262.939C257.105 264.037 257.896 265.025 258.994 265.146L259.433 261.17ZM266.84 265.962C267.939 266.07 268.918 265.266 269.025 264.167C269.133 263.067 268.329 262.089 267.23 261.981L266.84 265.962ZM275.106 262.707C274.005 262.612 273.036 263.427 272.941 264.527C272.845 265.628 273.66 266.597 274.761 266.692L275.106 262.707ZM282.634 267.332C283.736 267.416 284.697 266.591 284.78 265.49C284.864 264.388 284.039 263.427 282.938 263.344L282.634 267.332ZM290.814 263.904C289.712 263.831 288.759 264.665 288.686 265.767C288.613 266.869 289.447 267.822 290.549 267.895L290.814 263.904ZM298.448 268.382C299.551 268.445 300.496 267.602 300.559 266.499C300.622 265.396 299.779 264.451 298.676 264.388L298.448 268.382ZM306.551 264.804C305.447 264.75 304.51 265.601 304.456 266.704C304.403 267.808 305.254 268.745 306.357 268.799L306.551 264.804ZM314.273 269.15C315.376 269.195 316.307 268.336 316.352 267.233C316.396 266.129 315.538 265.198 314.434 265.154L314.273 269.15ZM322.309 265.441C321.205 265.405 320.28 266.271 320.244 267.375C320.208 268.479 321.074 269.403 322.178 269.439L322.309 265.441ZM330.103 269.67C331.207 269.698 332.125 268.826 332.154 267.721C332.182 266.617 331.309 265.699 330.205 265.671L330.103 269.67ZM338.081 265.845C336.976 265.824 336.064 266.703 336.044 267.807C336.023 268.911 336.902 269.823 338.006 269.844L338.081 265.845ZM345.936 269.965C347.04 269.978 347.946 269.094 347.96 267.989C347.973 266.885 347.088 265.979 345.984 265.965L345.936 269.965ZM353.861 266.035C352.756 266.029 351.856 266.919 351.849 268.024C351.843 269.128 352.733 270.029 353.838 270.035L353.861 266.035ZM361.768 270.056C362.873 270.056 363.768 269.16 363.768 268.056C363.767 266.951 362.872 266.056 361.767 266.057L361.768 270.056ZM369.642 266.031C368.538 266.038 367.648 266.939 367.655 268.043C367.661 269.148 368.562 270.038 369.667 270.031L369.642 266.031ZM377.602 269.96C378.706 269.947 379.591 269.041 379.578 267.937C379.565 266.832 378.66 265.947 377.555 265.96L377.602 269.96ZM385.418 265.847C384.314 265.866 383.434 266.776 383.453 267.881C383.472 268.985 384.383 269.865 385.487 269.846L385.418 265.847ZM393.437 269.689C394.541 269.664 395.416 268.749 395.391 267.644C395.367 266.54 394.451 265.665 393.347 265.69L393.437 269.689ZM401.176 265.494C400.072 265.524 399.202 266.444 399.232 267.548C399.263 268.652 400.182 269.523 401.287 269.492L401.176 265.494ZM409.269 269.252C410.373 269.216 411.238 268.292 411.202 267.188C411.166 266.084 410.242 265.218 409.138 265.254L409.269 269.252ZM416.947 264.98C415.843 265.022 414.982 265.95 415.023 267.054C415.065 268.158 415.993 269.019 417.097 268.977L416.947 264.98ZM425.074 268.658C426.178 268.611 427.035 267.678 426.988 266.575C426.941 265.471 426.008 264.615 424.905 264.662L425.074 268.658ZM432.797 264.307C431.694 264.359 430.841 265.296 430.894 266.399C430.946 267.503 431.883 268.355 432.986 268.302L432.797 264.307ZM440.774 267.914C441.878 267.857 442.725 266.916 442.667 265.813C442.61 264.71 441.669 263.862 440.566 263.92L440.774 267.914ZM448.557 263.482C447.454 263.546 446.612 264.491 446.675 265.594C446.738 266.696 447.683 267.539 448.786 267.476L448.557 263.482ZM456.725 267.001C457.827 266.932 458.665 265.982 458.596 264.88C458.528 263.778 457.578 262.94 456.476 263.009L456.725 267.001ZM464.358 262.495C463.256 262.57 462.423 263.524 462.498 264.626C462.573 265.728 463.527 266.561 464.629 266.486L464.358 262.495ZM472.54 265.925C473.641 265.843 474.468 264.884 474.387 263.782C474.305 262.681 473.346 261.854 472.244 261.936L472.54 265.925ZM479.908 261.34C478.807 261.43 477.988 262.396 478.078 263.497C478.168 264.598 479.133 265.417 480.234 265.327L479.908 261.34ZM11.6028 14.6174C13.9124 14.5542 16.5385 14.4889 19.4528 14.4261L19.3667 10.427C16.4443 10.49 13.8105 10.5555 11.4935 10.6189L11.6028 14.6174ZM27.2692 14.2783C29.7407 14.238 32.3545 14.2011 35.0992 14.1697L35.0534 10.17C32.302 10.2014 29.6817 10.2384 27.2038 10.2789L27.2692 14.2783ZM42.9861 14.0985C45.5123 14.0817 48.1255 14.0701 50.8189 14.0648L50.811 10.0648C48.1113 10.0701 45.4918 10.0817 42.9595 10.0986L42.9861 14.0985ZM58.5841 14.0677C61.1537 14.0746 63.7838 14.0876 66.4692 14.1076L66.4989 10.1077C63.807 10.0877 61.1706 10.0746 58.5949 10.0677L58.5841 14.0677ZM74.2607 14.1839C76.8261 14.2152 79.4344 14.2531 82.0815 14.2982L82.1497 10.2988C79.4959 10.2535 76.8812 10.2156 74.3095 10.1842L74.2607 14.1839ZM89.9379 14.4516C92.5022 14.5081 95.0975 14.5717 97.7207 14.6429L97.8291 10.6443C95.199 10.573 92.5969 10.5093 90.0261 10.4526L89.9379 14.4516ZM105.595 14.8773C108.163 14.9606 110.753 15.0515 113.362 15.1503L113.514 11.1532C110.897 11.0541 108.299 10.963 105.725 10.8794L105.595 14.8773ZM121.226 15.4705C123.801 15.5828 126.393 15.7031 128.997 15.832L129.195 11.8369C126.582 11.7076 123.983 11.5869 121.4 11.4743L121.226 15.4705ZM136.839 16.2442C139.423 16.3882 142.018 16.5409 144.62 16.7027L144.868 12.7104C142.257 12.548 139.654 12.3949 137.061 12.2504L136.839 16.2442ZM152.441 17.2156C155.033 17.3945 157.629 17.5827 160.227 17.7809L160.531 13.7924C157.923 13.5936 155.317 13.4046 152.717 13.2251L152.441 17.2156ZM168.026 18.405C170.623 18.6229 173.219 18.851 175.813 19.0898L176.18 15.1066C173.575 14.8668 170.968 14.6378 168.36 14.419L168.026 18.405ZM183.585 19.8385C186.187 20.1005 188.782 20.3738 191.37 20.6586L191.808 16.6826C189.207 16.3964 186.599 16.1219 183.986 15.8587L183.585 19.8385ZM199.112 21.5488C201.716 21.8615 204.309 22.1866 206.889 22.5244L207.408 18.5583C204.814 18.2185 202.206 17.8917 199.589 17.5774L199.112 21.5488ZM214.596 23.5783C217.2 23.95 219.787 24.3354 222.354 24.7352L222.97 20.7828C220.385 20.3803 217.781 19.9924 215.161 19.6184L214.596 23.5783ZM230.023 25.9825C232.622 26.4239 235.196 26.8809 237.744 27.354L238.474 23.4212C235.906 22.9443 233.311 22.4837 230.693 22.039L230.023 25.9825ZM245.372 28.8363C247.955 29.3615 250.506 29.9045 253.02 30.4659L253.892 26.562C251.351 25.9948 248.776 25.4465 246.169 24.9165L245.372 28.8363ZM260.601 32.2425C263.152 32.8699 265.659 33.518 268.119 34.1875L269.169 30.3279C266.676 29.6494 264.137 28.9931 261.557 28.3582L260.601 32.2425ZM275.632 36.3454C278.132 37.1033 280.573 37.8858 282.952 38.6935L284.238 34.906C281.815 34.0832 279.332 33.2873 276.792 32.5174L275.632 36.3454ZM290.307 41.3518C292.78 42.3039 295.17 43.2874 297.469 44.3031L299.085 40.644C296.722 39.6003 294.273 38.5924 291.744 37.6188L290.307 41.3518ZM304.368 47.5883C306.733 48.8055 308.975 50.0632 311.085 51.3624L313.182 47.956C310.977 46.5984 308.645 45.291 306.198 44.0317L304.368 47.5883ZM317.415 55.6873C319.51 57.2862 321.416 58.9382 323.123 60.6441L325.95 57.8145C324.104 55.9698 322.062 54.2021 319.842 52.5076L317.415 55.6873ZM327.928 66.3337C329.373 68.4084 330.546 70.5533 331.436 72.7717L335.148 71.2818C334.137 68.7614 332.814 66.3515 331.211 64.0483L327.928 66.3337ZM333.267 79.7971C333.421 81.0062 333.5 82.2401 333.5 83.4999H337.5C337.5 82.0733 337.411 80.6704 337.235 79.2914L333.267 79.7971ZM333.5 83.4999C333.5 84.8664 333.445 86.188 333.339 87.4666L337.325 87.7997C337.441 86.4059 337.5 84.973 337.5 83.4999H333.5ZM331.991 94.9908C331.271 97.5118 330.303 99.8388 329.11 101.993L332.609 103.931C333.951 101.508 335.034 98.8991 335.837 96.09L331.991 94.9908ZM324.689 108.168C323.015 110.026 321.119 111.738 319.017 113.317L321.42 116.515C323.708 114.796 325.798 112.913 327.661 110.845L324.689 108.168ZM312.465 117.484C310.239 118.689 307.863 119.797 305.352 120.819L306.86 124.524C309.489 123.454 311.999 122.285 314.369 121.002L312.465 117.484ZM297.898 123.492C295.434 124.27 292.877 124.988 290.238 125.653L291.215 129.532C293.921 128.85 296.555 128.111 299.103 127.306L297.898 123.492ZM282.448 127.426C279.878 127.954 277.25 128.445 274.572 128.906L275.25 132.848C277.965 132.381 280.636 131.882 283.254 131.344L282.448 127.426ZM266.638 130.169C264.012 130.556 261.35 130.923 258.662 131.275L259.181 135.241C261.887 134.887 264.57 134.517 267.222 134.126L266.638 130.169ZM250.659 132.276C248.001 132.596 245.326 132.907 242.64 133.216L243.098 137.19C245.787 136.881 248.469 136.568 251.136 136.247L250.659 132.276ZM234.618 134.137C231.94 134.445 229.259 134.757 226.583 135.078L227.059 139.049C229.726 138.729 232.4 138.418 235.075 138.11L234.618 134.137ZM218.541 136.08C215.847 136.43 213.165 136.796 210.503 137.184L211.08 141.142C213.718 140.758 216.379 140.395 219.057 140.046L218.541 136.08ZM202.479 138.436C199.781 138.889 197.112 139.371 194.481 139.889L195.254 143.814C197.843 143.303 200.475 142.828 203.14 142.381L202.479 138.436ZM186.522 141.607C183.835 142.241 181.198 142.925 178.624 143.666L179.73 147.51C182.236 146.789 184.81 146.121 187.441 145.5L186.522 141.607ZM170.81 146.169C168.174 147.109 165.621 148.126 163.165 149.232L164.806 152.879C167.155 151.822 169.608 150.844 172.153 149.937L170.81 146.169ZM155.791 153.002C153.344 154.425 151.027 155.969 148.858 157.647L151.307 160.81C153.323 159.249 155.492 157.803 157.802 156.46L155.791 153.002ZM142.647 163.289C140.735 165.34 139.008 167.552 137.488 169.939L140.862 172.087C142.245 169.916 143.82 167.897 145.573 166.016L142.647 163.289ZM133.655 177.433C132.649 179.956 131.84 182.631 131.241 185.467L135.155 186.293C135.708 183.673 136.452 181.219 137.371 178.915L133.655 177.433ZM130.133 193.728C130.045 195.119 130 196.543 130 198H134C134 196.624 134.042 195.285 134.125 193.982L130.133 193.728ZM130 198C130 199.432 130.073 200.839 130.218 202.222L134.196 201.807C134.066 200.564 134 199.295 134 198H130ZM131.955 210.312C132.826 212.935 133.977 215.446 135.386 217.847L138.836 215.823C137.562 213.653 136.53 211.397 135.752 209.052L131.955 210.312ZM140.208 224.544C141.956 226.569 143.905 228.502 146.038 230.347L148.655 227.322C146.655 225.592 144.846 223.796 143.237 221.93L140.208 224.544ZM152.443 235.266C154.59 236.738 156.867 238.148 159.264 239.498L161.228 236.014C158.923 234.715 156.747 233.367 154.705 231.967L152.443 235.266ZM166.426 243.196C168.802 244.323 171.271 245.404 173.826 246.441L175.331 242.734C172.841 241.724 170.442 240.673 168.14 239.582L166.426 243.196ZM181.224 249.24C183.696 250.113 186.236 250.951 188.837 251.756L190.02 247.934C187.465 247.144 184.975 246.322 182.555 245.468L181.224 249.24ZM196.482 253.978C198.997 254.666 201.562 255.326 204.172 255.959L205.115 252.072C202.54 251.447 200.013 250.797 197.537 250.12L196.482 253.978ZM211.972 257.746C214.514 258.295 217.093 258.822 219.706 259.327L220.465 255.4C217.879 254.9 215.329 254.379 212.817 253.836L211.972 257.746ZM227.584 260.767C230.147 261.21 232.739 261.634 235.355 262.039L235.967 258.086C233.373 257.684 230.804 257.264 228.265 256.826L227.584 260.767ZM243.263 263.197C245.847 263.555 248.452 263.895 251.075 264.22L251.566 260.25C248.961 259.928 246.375 259.59 243.811 259.235L243.263 263.197ZM258.994 265.146C261.595 265.433 264.211 265.704 266.84 265.962L267.23 261.981C264.617 261.725 262.017 261.455 259.433 261.17L258.994 265.146ZM274.761 266.692C277.376 266.919 280.002 267.132 282.634 267.332L282.938 263.344C280.318 263.144 277.707 262.932 275.106 262.707L274.761 266.692ZM290.549 267.895C293.178 268.069 295.812 268.231 298.448 268.382L298.676 264.388C296.051 264.238 293.43 264.077 290.814 263.904L290.549 267.895ZM306.357 268.799C308.996 268.927 311.635 269.044 314.273 269.15L314.434 265.154C311.807 265.048 309.179 264.931 306.551 264.804L306.357 268.799ZM322.178 269.439C324.825 269.526 327.467 269.603 330.103 269.67L330.205 265.671C327.579 265.604 324.946 265.528 322.309 265.441L322.178 269.439ZM338.006 269.844C340.66 269.893 343.304 269.934 345.936 269.965L345.984 265.965C343.36 265.934 340.725 265.894 338.081 265.845L338.006 269.844ZM353.838 270.035C356.497 270.05 359.142 270.057 361.768 270.056L361.767 266.057C359.148 266.057 356.512 266.05 353.861 266.035L353.838 270.035ZM369.667 270.031C372.334 270.015 374.98 269.991 377.602 269.96L377.555 265.96C374.941 265.991 372.302 266.015 369.642 266.031L369.667 270.031ZM385.487 269.846C388.168 269.8 390.819 269.747 393.437 269.689L393.347 265.69C390.736 265.748 388.092 265.801 385.418 265.847L385.487 269.846ZM401.287 269.492C403.99 269.418 406.652 269.337 409.269 269.252L409.138 265.254C406.528 265.339 403.873 265.42 401.176 265.494L401.287 269.492ZM417.097 268.977C419.815 268.875 422.476 268.768 425.074 268.658L424.905 264.662C422.312 264.772 419.658 264.878 416.947 264.98L417.097 268.977ZM432.986 268.302C435.664 268.175 438.262 268.046 440.774 267.914L440.566 263.92C438.06 264.051 435.468 264.18 432.797 264.307L432.986 268.302ZM448.786 267.476C451.57 267.316 454.22 267.157 456.725 267.001L456.476 263.009C453.978 263.165 451.334 263.323 448.557 263.482L448.786 267.476ZM464.629 266.486C467.566 266.286 470.213 266.097 472.54 265.925L472.244 261.936C469.925 262.107 467.287 262.296 464.358 262.495L464.629 266.486Z" fill="#BFD705"/>
</svg>
