<?xml version="1.0" encoding="UTF-8"?>
<!DOCTYPE svg PUBLIC "-//W3C//DTD SVG 1.1//EN" "http://www.w3.org/Graphics/SVG/1.1/DTD/svg11.dtd">
<!-- Creator: CorelDRAW X7 -->
<svg xmlns="http://www.w3.org/2000/svg" xml:space="preserve" width="85.2665mm" height="19.6139mm" version="1.1" style="shape-rendering:geometricPrecision; text-rendering:geometricPrecision; image-rendering:optimizeQuality; fill-rule:evenodd; clip-rule:evenodd"
viewBox="0 0 11260 2590"
 xmlns:xlink="http://www.w3.org/1999/xlink">
 <defs>
  <style type="text/css">
   <![CDATA[
    .fil1 {fill:#B0CC22}
    .fil0 {fill:black;fill-rule:nonzero}
   ]]>
  </style>
 </defs>
 <g id="Слой_x0020_1">
  <metadata id="CorelCorpID_0Corel-Layer"/>
  <g id="_2421732935904">
   <path class="fil0" d="M6179 2541l-472 0 0 -2376 772 0c563,0 845,244 845,733 0,380 -169,626 -507,739 -88,28 -194,46 -317,52 -9,0 -116,0 -321,0l0 852zm0 -1950l0 673 245 0c292,0 438,-112 438,-335 0,-226 -142,-338 -425,-338l-258 0zm2993 1950l-416 0 0 -202c-131,165 -310,248 -537,248 -252,0 -459,-87 -619,-261 -160,-174 -240,-388 -240,-643 0,-253 79,-467 238,-640 158,-174 363,-261 613,-261 231,0 408,78 532,234l0 -184 429 0 0 1709zm-416 -848c0,-145 -47,-269 -142,-371 -95,-103 -213,-154 -356,-154 -141,0 -257,51 -347,152 -90,101 -135,222 -135,363 0,138 47,260 140,364 94,105 210,157 348,157 134,0 250,-52 347,-155 96,-103 145,-222 145,-356zm2504 848l-429 0 0 -188c-129,156 -306,234 -532,234 -249,0 -453,-87 -612,-261 -159,-174 -238,-388 -238,-643 0,-251 78,-464 236,-639 157,-175 360,-262 608,-262 214,0 393,75 538,224l0 -1006 429 0 0 2541zm-419 -852c0,-147 -44,-271 -133,-371 -90,-100 -207,-150 -352,-150 -143,0 -261,50 -353,150 -92,100 -139,222 -139,365 0,141 46,262 137,364 92,103 208,154 349,154 140,0 257,-50 351,-150 93,-100 140,-221 140,-362z"/>
   <path class="fil1" d="M0 164l0 2362 1485 0 0 -391 -1016 0 0 -1971 -469 0zm4934 1839l436 0c-159,391 -436,587 -832,587 -262,0 -476,-85 -643,-256 -168,-170 -251,-386 -251,-648 0,-253 84,-467 254,-643 169,-176 380,-264 633,-264 194,0 364,50 510,151 147,102 253,244 319,426 41,115 62,270 62,465l-1362 0c46,271 206,406 481,406 106,0 185,-12 238,-36 70,-35 122,-98 155,-188zm66 -495c-55,-242 -209,-363 -462,-363 -246,0 -403,121 -469,363l931 0zm-3318 -1200c0,-69 26,-128 76,-179 51,-50 115,-76 193,-76 78,0 143,24 196,73 53,48 79,109 79,182 0,73 -26,133 -79,182 -53,48 -118,72 -196,72 -78,0 -142,-25 -193,-76 -50,-51 -76,-110 -76,-178zm39 531l0 1687 459 0 0 -1687 -459 0zm1769 0l-412 0 0 -41c0,-81 0,-169 47,-236 68,-101 189,-115 274,-115l91 0 0 -330 -71 0c-216,0 -449,-4 -628,175 -169,169 -172,381 -172,570l0 1664 459 0 0 -1356 412 0 0 -331z"/>
  </g>
 </g>
</svg>
