<?xml version="1.0" encoding="utf-8"?>
<!-- Generator: Adobe Illustrator 24.0.1, SVG Export Plug-In . SVG Version: 6.00 Build 0)  -->
<svg version="1.1" id="Слой_1" xmlns="http://www.w3.org/2000/svg" xmlns:xlink="http://www.w3.org/1999/xlink" x="0px" y="0px"
	 viewBox="0 0 136.5 39.9" style="enable-background:new 0 0 136.5 39.9;" xml:space="preserve">
<style type="text/css">
	.st0{fill-rule:evenodd;clip-rule:evenodd;fill:#BFD000;}
	.st1{fill-rule:evenodd;clip-rule:evenodd;fill:#FFFFFF;}
	.st2{fill-rule:evenodd;clip-rule:evenodd;fill:#B1CB08;}
	.st3{fill:#FFFFFF;}
</style>
<path class="st0" d="M25.3,27.8l-5.2,2.7l9.5,6.8c0.6-0.4,7.3-4.5,7.7-10.4c0.2-3.5-1.6-5.9-4.2-8.3c0.6,1.1,0.8,2,0.7,2.8H9.3
	L11,23h22.1c-0.8,1.1-2.3,2-4.3,3l-0.3,0.1H14.9l2.1,1.6L25.3,27.8z"/>
<path class="st1" d="M7.5,16.4c0.6-1,1.9-1.9,3.7-2.9H27l-2.1-1.6H14.5l6.4-3.1l-9.2-7c-0.6,0.4-9.3,4.8-8.3,11
	c0.3,2.1,1.8,5.2,4.4,7.6C7.2,19.5,7,18.7,7,18h25.4l-1.7-1.6H7.5z M1,13.6c0.2,2.4,1,6.2,9.2,11.8c6.3,5.3,12.5,8.9,17,13.2
	c-2.2,0.9-4.6,1.3-7.1,1.4c-11,0-20-8.9-20.1-19.9C0,17.8,0.4,15.6,1,13.6z"/>
<path class="st0" d="M39.3,24.8c-0.4-1.8-2.1-6-9.4-11.6C24.1,8.7,18.4,5,13.8,1c1.9-0.6,3.9-0.9,6-1c11-0.1,20,8.8,20.1,19.8
	C39.9,21.5,39.7,23.2,39.3,24.8"/>
<path class="st2" d="M84.4,24.5c-0.1,0.7-0.4,1.2-0.7,1.5c-0.5,0.5-1.2,1-2.4,1c-1.5,0-2.3-0.8-2.7-1.5C78.2,24.8,78,23.8,78,23
	h10.1v-0.2c0-1.6-0.2-3.6-1.7-5.2c-1.6-1.8-3.5-2.1-5.2-2.1c-1.6,0-3.5,0.3-5,1.9c-1,1-1.9,2.6-1.9,5c0,2.5,0.9,4.1,1.8,5
	c1.1,1.2,2.8,1.9,5.1,2c2.7,0,4.3-1,5.1-1.8c0.6-0.6,1.3-1.6,1.6-2.9h-3.5V24.5z M81.3,17.6c1.4,0,2.2,0.6,2.6,1.1s0.7,1.4,0.7,2.1
	H78c0-0.7,0.3-1.6,0.7-2.1C79.2,18.2,80,17.6,81.3,17.6z M73.5,15.9h-3.2v-0.3c0-0.6,0-1.3,0.4-1.8c0.5-0.8,1.4-0.9,2.1-0.9h0.7
	v-2.5H73c-1.7,0-3.4,0-4.8,1.3c-1.3,1.3-1.3,2.9-1.3,4.4v12.7h3.5V18.4h3.2L73.5,15.9L73.5,15.9z M59.9,15.9v12.9h3.5V15.9H59.9z
	 M59.6,11.8c0-0.5,0.2-1,0.6-1.4c0.4-0.4,0.9-0.6,1.5-0.6s1.1,0.2,1.5,0.6c0.4,0.4,0.6,0.8,0.6,1.4c0,0.6-0.2,1-0.6,1.4
	c-0.4,0.4-0.9,0.6-1.5,0.6s-1.1-0.2-1.5-0.6C59.8,12.8,59.6,12.3,59.6,11.8z M46.7,10.7v18.1h11.4v-3h-7.8V10.7H46.7z"/>
<path class="st3" d="M132.9,22.3c0,0.9-0.1,2-0.7,2.9c-0.6,0.9-1.4,1.3-2.6,1.3c-1.1,0-2-0.4-2.6-1.3s-0.7-2-0.7-2.9
	s0.1-1.9,0.7-2.8s1.4-1.3,2.6-1.3c1.1,0,2,0.4,2.6,1.3S132.9,21.5,132.9,22.3z M133,10.7v6.9c-1.2-1.9-3.1-2.1-4-2.1
	c-2.1,0-3.6,0.9-4.6,2s-1.7,2.7-1.7,4.9s0.7,3.8,1.7,4.9s2.6,1.9,4.6,1.9c0.9,0,2.8-0.2,4-2.2v1.9h3.5V10.7H133z M116.8,22.3
	c0,0.9-0.1,2-0.7,2.9s-1.4,1.3-2.6,1.3c-1.1,0-2-0.4-2.6-1.3s-0.7-2-0.7-2.9s0.1-1.9,0.7-2.8s1.4-1.3,2.6-1.3c1.1,0,2,0.4,2.6,1.3
	C116.7,20.4,116.8,21.4,116.8,22.3z M120.2,15.9h-3.4v1.8c-1.2-1.9-3.3-2.2-4.2-2.2c-2.1,0-3.5,0.8-4.5,1.9s-1.7,2.7-1.7,4.9
	s0.7,3.8,1.7,4.9s2.4,2,4.5,1.9c0.7,0,3-0.1,4.2-2.2v1.8h3.4V15.9z M94.6,13.4h2.6c0.7,0,1.9,0,2.7,0.6c0.6,0.4,1.1,1.2,1.1,2.6
	s-0.6,2.2-1.1,2.6c-0.8,0.6-2,0.6-2.7,0.6h-2.6V13.4z M91,10.7v18.1h3.6v-6.3H97c1.8,0,3.8-0.1,5.4-1.2c1.1-0.7,2.3-2.1,2.3-4.7
	s-1.2-4-2.3-4.7c-1.6-1.1-3.5-1.2-5.4-1.2C97,10.7,91,10.7,91,10.7z"/>
</svg>
