<?xml version="1.0" encoding="utf-8"?>
<!-- Generator: Adobe Illustrator 26.1.0, SVG Export Plug-In . SVG Version: 6.00 Build 0)  -->
<svg version="1.1" id="Layer_1" xmlns="http://www.w3.org/2000/svg" xmlns:xlink="http://www.w3.org/1999/xlink" x="0px" y="0px"
	 viewBox="0 0 750.1 163.7" style="enable-background:new 0 0 750.1 163.7;" xml:space="preserve">
<style type="text/css">
	.st0{fill:#005BFF;}
</style>
<g>
	<path class="st0" d="M313.3,121.8h-64.7l82.6-109.3c1.8-2.4,1.3-5.9-1.1-7.7c-0.9-0.7-2.1-1.1-3.3-1.1H207.3
		c-10.5,0-19.1,8.6-19.1,19.1s8.6,19.1,19.1,19.1H261l-82.9,109.4c-1.9,2.4-1.4,5.8,1,7.7c1,0.8,2.2,1.2,3.4,1.1h130.7
		c10.5-0.5,18.6-9.5,18.1-20.1c-0.5-9.8-8.3-17.6-18.1-18.1L313.3,121.8L313.3,121.8z M730.9,3.7c-10.5,0-19.1,8.6-19.1,19.1v64.1
		L608.6,5c-2.3-1.9-5.8-1.6-7.7,0.8c-0.8,1-1.2,2.2-1.2,3.5V141c0,10.5,8.6,19.1,19.1,19.1s19.1-8.5,19.1-19.1V76.9l103.2,82
		c2.4,1.9,5.9,1.5,7.8-0.9c0.8-1,1.2-2.2,1.2-3.4V22.8C750,12.2,741.5,3.7,730.9,3.7 M457.8,125.4c-43.7,0-76.3-23-76.3-43.6
		s32.7-43.6,76.3-43.6c43.7,0,76.3,23,76.3,43.6S501.6,125.4,457.8,125.4 M457.8,0c-63.2,0-114.5,36.6-114.5,81.8
		s51.3,81.8,114.5,81.8S572.3,127,572.3,81.8S521,0,457.8,0 M81.9,125.5c-24.1,0-43.7-19.5-43.7-43.6s19.5-43.7,43.6-43.7
		s43.7,19.5,43.7,43.6v0.1C125.5,105.9,106,125.4,81.9,125.5 M81.9,0C36.7,0,0.1,36.6,0,81.8c0,45.2,36.6,81.8,81.8,81.9
		c45.2,0,81.8-36.6,81.9-81.8v-0.1C163.6,36.6,127,0,81.9,0"/>
</g>
</svg>
