<?xml version="1.0" standalone="no"?>
<!DOCTYPE svg PUBLIC "-//W3C//DTD SVG 20010904//EN"
 "http://www.w3.org/TR/2001/REC-SVG-20010904/DTD/svg10.dtd">
<svg version="1.0" xmlns="http://www.w3.org/2000/svg"
 width="75.000000pt" height="75.000000pt" viewBox="0 0 75.000000 75.000000"
 preserveAspectRatio="xMidYMid meet">
<metadata>
Created by potrace 1.14, written by Peter Selinger 2001-2017
</metadata>
<g transform="translate(0.000000,75.000000) scale(0.100000,-0.100000)"
fill="#000000" stroke="none">
<path d="M326 598 c-15 -9 -14 -12 11 -34 15 -13 31 -24 34 -24 3 0 15 -8 27
-17 42 -37 58 -48 83 -65 35 -22 97 -88 105 -110 11 -35 20 -17 19 35 -3 87
-55 166 -134 203 -40 19 -121 26 -145 12z"/>
<path d="M227 545 c-36 -35 -41 -46 -39 -92 1 -33 32 -75 46 -64 6 5 49 9 96
9 179 1 196 2 180 12 -8 6 -49 10 -90 9 -163 -1 -185 0 -172 14 8 7 45 12 100
13 48 0 87 5 87 10 0 11 -20 15 -70 15 -39 -1 -39 0 -15 12 14 7 25 18 25 24
0 14 -79 73 -98 73 -8 0 -30 -16 -50 -35z"/>
<path d="M149 408 c-4 -92 13 -142 70 -197 59 -58 170 -85 225 -54 20 11 20
11 -60 68 -104 75 -196 154 -207 178 -14 33 -27 35 -28 5z"/>
<path d="M530 370 c0 -6 -51 -10 -136 -10 -87 0 -133 -4 -129 -10 4 -6 57 -10
126 -10 70 0 119 -4 119 -10 0 -15 -59 -27 -123 -24 -40 1 -57 -1 -54 -9 2 -7
23 -12 46 -12 l42 0 -23 -19 c-14 -12 -18 -20 -11 -23 6 -2 30 -17 52 -34 23
-16 45 -29 50 -29 4 0 22 12 39 28 34 29 53 69 47 98 -2 11 -4 26 -4 34 -1 17
-41 46 -41 30z"/>
</g>
</svg>
