<svg width="143" height="36" fill="none" xmlns="http://www.w3.org/2000/svg"><g clip-path="url(#clip0)"><path d="M17.438 3.904a9.636 9.636 0 011.155 1.91l-8.78 6.456-3.668-2.294v-2.76L9.813 9.51l7.625-5.606z" fill="#21A038"/><path d="M2.402 9.782c0-.124.003-.247.009-.37l-2.223-.11a9.57 9.57 0 002.81 7.277l1.576-1.572a7.365 7.365 0 01-2.172-5.225z" fill="url(#paint0_linear)"/><path d="M9.812 2.39c.124 0 .247.004.37.01l.111-2.218a9.618 9.618 0 00-7.295 2.803l1.576 1.573A7.396 7.396 0 019.812 2.39z" fill="url(#paint1_linear)"/><path d="M9.813 17.174c-.124 0-.247-.003-.37-.01l-.111 2.218a9.618 9.618 0 007.295-2.803l-1.576-1.572a7.401 7.401 0 01-5.238 2.167z" fill="url(#paint2_linear)"/><path d="M13.99 3.68l1.874-1.378A9.607 9.607 0 009.812.17v2.22a7.38 7.38 0 014.178 1.29z" fill="url(#paint3_linear)"/><path d="M19.448 9.781c0-.588-.053-1.163-.155-1.722L17.22 9.583l.003.197c0 2.17-.943 4.125-2.44 5.479l1.495 1.65a9.576 9.576 0 003.17-7.128z" fill="#21A038"/><path d="M9.813 17.173a7.401 7.401 0 01-5.492-2.435L2.668 16.23a9.622 9.622 0 007.145 3.164v-2.22z" fill="url(#paint4_linear)"/><path d="M4.843 4.304l-1.496-1.65A9.577 9.577 0 00.176 9.782h2.226c0-2.17.943-4.125 2.441-5.478z" fill="url(#paint5_linear)"/><path d="M55.542 5.812l2.575-1.893h-8.613v11.362h8.613v-1.89h-6.156v-2.91h5.251V8.588h-5.251V5.812h3.581zM43 8.35h-2.991V5.811h4.776l2.575-1.893h-9.811V15.28h5.133c2.879 0 4.529-1.3 4.529-3.57 0-2.167-1.496-3.362-4.211-3.362zm-.428 5.041H40.01v-3.149h2.563c1.56 0 2.286.527 2.286 1.576 0 1.069-.77 1.573-2.286 1.573zm22.523-9.472h-4.689v11.362h2.457v-3.219h2.232c2.994 0 4.852-1.57 4.852-4.077 0-2.507-1.86-4.066-4.852-4.066zm-.053 6.253h-2.179v-4.36h2.179c1.574 0 2.443.774 2.443 2.181 0 1.405-.869 2.18-2.443 2.18zM33.33 12.821c-.63.348-1.363.53-2.122.53-2.215 0-3.826-1.579-3.826-3.752s1.608-3.752 3.826-3.752c.838 0 1.591.236 2.235.699l1.763-1.296-.116-.1c-1.029-.904-2.403-1.38-3.977-1.38-1.707 0-3.256.574-4.36 1.615-1.11 1.048-1.724 2.523-1.724 4.153 0 1.637.61 3.132 1.718 4.214 1.11 1.083 2.656 1.68 4.349 1.68 1.77 0 3.32-.617 4.368-1.739-.81-.594-1.59-1.169-1.59-1.169l-.543.297z" fill="#21A038"/><path d="M36.078 23.467l-3.66 6.034h-1.024l-3.738-5.95V32h-2.033V20.648h2.57l3.772 6.178 3.739-6.178h2.406V32h-2.032v-8.533zm12.093 3.616h-5.234v3.048h6.016v1.865h-8.049V20.645h7.869v1.864h-5.836v2.709h5.234v1.865zm10.76-4.573h-5.69v9.486H51.21V20.645h7.722v1.864zm10.453 9.486h-2.162l-1.088-2.692h-5.218l-1.073 2.692h-2.064l4.616-11.351h2.308l4.68 11.35zm-4-4.557l-1.87-4.655-1.87 4.655h3.74zM84.8 23.466L81.14 29.5h-1.023l-3.739-5.95v8.448h-2.032v-11.35h2.57l3.772 6.177 3.738-6.177h2.407v11.35H84.8v-8.532zm15.07 8.53h-2.16l-1.092-2.692h-5.217l-1.074 2.692h-2.063l4.616-11.351h2.308l4.683 11.35zm-3.997-4.557l-1.869-4.655-1.87 4.655h3.74zm7.478 1.023V32h-2.033V20.648h3.787c1.799 0 3.103.322 3.91.964.807.642 1.212 1.604 1.212 2.877 0 1.33-.433 2.325-1.302 2.984-.866.659-2.139.99-3.82.99h-1.754zm0-5.953v4.086h1.903c.953 0 1.67-.165 2.145-.493.478-.331.714-.884.714-1.663 0-.701-.222-1.2-.666-1.492-.445-.292-1.164-.438-2.162-.438h-1.934zm10.986 9.487h-2.032V20.645h2.032v4.767h1.706l3.658-4.767h2.471l-4.341 5.4 5.041 5.95h-2.601l-4.129-4.912h-1.805v4.913zm17.25-4.913h-5.234v3.048h6.016v1.865h-8.049V20.645h7.869v1.864h-5.836v2.709h5.234v1.865zm11.491-4.573h-3.837v9.486h-2.033v-9.487h-3.772v-1.864h9.639v1.864h.003z" fill="#632895"/></g><defs><linearGradient id="paint0_linear" x1="2.76" y1="16.301" x2=".507" y2="9.77" gradientUnits="userSpaceOnUse"><stop offset=".144" stop-color="#F2E913"/><stop offset=".304" stop-color="#E7E518"/><stop offset=".582" stop-color="#CADB26"/><stop offset=".891" stop-color="#A3CD39"/></linearGradient><linearGradient id="paint1_linear" x1="3.634" y1="2.737" x2="9.399" y2=".535" gradientUnits="userSpaceOnUse"><stop offset=".059" stop-color="#0FA8E0"/><stop offset=".538" stop-color="#0099F9"/><stop offset=".923" stop-color="#0291EB"/></linearGradient><linearGradient id="paint2_linear" x1="9.185" y1="17.515" x2="16.053" y2="15.959" gradientUnits="userSpaceOnUse"><stop offset=".123" stop-color="#A3CD39"/><stop offset=".285" stop-color="#86C339"/><stop offset=".869" stop-color="#21A038"/></linearGradient><linearGradient id="paint3_linear" x1="9.347" y1="1.578" x2="15.059" y2="3.345" gradientUnits="userSpaceOnUse"><stop offset=".057" stop-color="#0291EB"/><stop offset=".79" stop-color="#0C8ACB"/></linearGradient><linearGradient id="paint4_linear" x1="3.226" y1="16.588" x2="9.362" y2="18.886" gradientUnits="userSpaceOnUse"><stop offset=".132" stop-color="#F2E913"/><stop offset=".298" stop-color="#EBE716"/><stop offset=".531" stop-color="#D9E01F"/><stop offset=".802" stop-color="#BBD62D"/><stop offset=".983" stop-color="#A3CD39"/></linearGradient><linearGradient id="paint5_linear" x1="1.876" y1="10.051" x2="4.313" y2="3.698" gradientUnits="userSpaceOnUse"><stop offset=".07" stop-color="#A3CD39"/><stop offset=".26" stop-color="#81C55F"/><stop offset=".922" stop-color="#0FA8E0"/></linearGradient><clipPath id="clip0"><path fill="#fff" d="M0 0h143v36H0z"/></clipPath></defs></svg>