<?xml version="1.0" encoding="UTF-8" standalone="no"?>
<svg
   xmlns:dc="http://purl.org/dc/elements/1.1/"
   xmlns:cc="http://creativecommons.org/ns#"
   xmlns:rdf="http://www.w3.org/1999/02/22-rdf-syntax-ns#"
   xmlns:svg="http://www.w3.org/2000/svg"
   xmlns="http://www.w3.org/2000/svg"
   viewBox="0 0 568 164"
   height="164"
   width="568"
   xml:space="preserve"
   id="svg2"
   version="1.1"><metadata
     id="metadata8"><rdf:RDF><cc:Work
         rdf:about=""><dc:format>image/svg+xml</dc:format><dc:type
           rdf:resource="http://purl.org/dc/dcmitype/StillImage" /></cc:Work></rdf:RDF></metadata><defs
     id="defs6" /><g
     transform="matrix(1.3333333,0,0,-1.3333333,0,164)"
     id="g10"><g
       transform="scale(0.1)"
       id="g12"><path
         id="path14"
         style="fill:#ec208b;fill-opacity:1;fill-rule:nonzero;stroke:none"
         d="m 356.301,1229.25 h 21.144 c 42.063,-2.75 82.758,-22.33 110.743,-53.91 26.886,-29.77 42.125,-69.81 41.519,-109.96 0.063,-40.21 -15.836,-80.067 -43.203,-109.466 -25.703,-27.937 -61.434,-46.422 -99.133,-50.98 -35.867,-4.586 -73.254,3.054 -104.234,21.777 -25.774,15.457 -47.262,38.152 -61.024,64.891 -12,23.128 -18.453,49.198 -18.074,75.278 -0.406,40.04 15.188,79.83 42.195,109.3 27.973,31.12 68.364,50.37 110.067,53.07 z m 3721.979,0 h 21.29 c 28.47,-2 56.4,-11.26 80.11,-27.2 21.41,-14.36 39.38,-33.84 51.93,-56.37 12.55,-22.37 19.27,-47.76 20.43,-73.32 v -12.23 c -0.58,-7.28 -1.22,-14.57 -2.43,-21.77 -8,-47.282 -38.26,-90.13 -80.1,-113.544 -28.52,-16.32 -62.08,-23.476 -94.8,-20.531 -32.08,2.68 -63.17,15.297 -88.13,35.57 -23.27,18.75 -41.2,44.063 -51.12,72.245 -13.71,38.38 -12.23,81.91 4.06,119.27 11.97,27.81 31.96,52.02 56.86,69.24 24.05,16.76 52.69,26.5 81.9,28.64 z m -657.24,-84.82 c 19.56,20.36 50.25,28.5 77.5,21.65 22.19,-5.36 41.64,-20.62 52.33,-40.74 14.11,-25.97 12.43,-59.69 -4.32,-84.05 -13.15,-19.59 -35.09,-33.1 -58.62,-35.47 -24.81,-2.82 -50.84,6.27 -67.99,24.5 -9.16,9.42 -15.68,21.2 -19.44,33.72 -8.15,27.9 -0.47,60.05 20.54,80.39 z M 710.891,1087.62 c 63.054,35.7 138.687,48.07 209.933,35.27 51.781,-9.13 101.106,-31.63 142.006,-64.65 45.62,-36.54 80.71,-86.068 100.04,-141.248 19.75,-55.953 22.87,-117.551 9.82,-175.375 -15.42,-68.078 -54.46,-130.457 -108.79,-174.219 0,66.231 0,132.446 0,198.672 -27.19,0 -54.39,0.016 -81.584,-0.011 0.016,-143.246 -0.058,-286.485 0.051,-429.727 71.323,0.016 142.653,0.016 213.993,0 -13.39,-57.176 -60.26,-104.68 -117.21,-118.937 -34.56,-8.887 -72.11,-6.348 -104.935,7.773 -46.59,19.492 -82.879,61.93 -94.383,111.164 2.766,0 5.563,-0.012 8.359,-0.043 0.348,34.379 0,68.754 0.168,103.149 8.254,19.73 20.754,37.636 36.079,52.542 4.613,4.528 9.8,8.422 14.316,13.086 -16.742,-2.902 -33.418,-6.363 -50.41,-7.25 -0.031,89.418 0,178.836 -0.016,268.243 -25.969,-0.051 -51.926,0.148 -77.883,-0.094 0.137,-88.125 0.028,-176.25 0.043,-264.36 -39.777,6.801 -77.898,21.79 -112.289,42.801 19.727,73.879 39.535,147.75 59.219,221.653 -22.934,-0.051 -45.852,0.148 -68.766,-0.106 -15.254,-59.195 -30.789,-118.312 -46.156,-177.473 -17.715,18.317 -33.894,38.2 -47.098,60.051 -43.972,71.629 -57.027,161.196 -35.839,242.461 20.738,82.578 76.953,155.288 151.332,196.628 z m 2339.439,35.87 c 57.09,9.5 116.79,3.2 170.43,-18.59 48.89,-19.67 92.47,-51.94 125.92,-92.59 -31.24,-38.318 -53.76,-83.915 -64.07,-132.322 -7.48,-34.379 -9.16,-69.976 -5.11,-104.91 2.44,-18.527 5.48,-37.207 11.97,-54.785 0.26,-54.094 0.03,-108.184 0.09,-162.277 -4.03,-2.649 -7.94,-5.461 -11.88,-8.184 -39.3,-26.375 -84.65,-43.102 -131.34,-50.227 -3.42,8.918 -7.27,17.668 -10.32,26.708 22.69,9.07 43.96,23.476 57.7,44.031 14.75,21.508 19.91,48.242 19.19,73.976 -0.32,28.664 -9.89,57.641 -29.1,79.207 -17.62,20.918 -43.7,32.754 -70.07,37.953 -28.2,6.094 -57.18,4.364 -85.78,4.59 -50.78,0 -101.55,0.016 -152.31,-0.011 -0.03,-140.567 0.03,-281.145 -0.01,-421.723 -23.89,16.738 -42.85,40.312 -54.59,66.965 -14.37,32.648 -17.37,70.019 -8.93,104.637 8.18,33.804 27.77,64.542 54.56,86.695 -32.84,37.113 -57.08,81.836 -69.47,129.859 -14.64,56.184 -13.46,116.363 3.42,171.93 1.59,5.234 3.3,10.453 5.17,15.629 18.75,51.398 51.01,97.809 92.86,133.099 43,36.53 95.97,61.19 151.67,70.34 z M 1877.34,1007.36 c 32.97,17.57 72.08,22.89 108.64,15.49 48.09,-9.46 90.83,-42.135 112.73,-85.955 25.47,-49.282 23.11,-111.649 -6.3,-158.719 -10.41,-17.61 -24.82,-32.406 -40.61,-45.25 18.65,-12.602 36.73,-26.199 52.47,-42.363 3.97,-3.985 7.91,-8.016 11.93,-11.985 0.14,-114.098 -0.23,-228.211 0.18,-342.305 17.68,0.168 35.37,0.047 53.05,0.059 -27.22,-60.965 -74.98,-112.394 -133.13,-145.059 -51.7,-29.082 -111.69,-42.8 -170.88,-39.625 -53.75,2.645 -106.69,19.532 -152.1,48.375 -54.89,34.77 -98.79,86.79 -123.22,147.032 -27.46,-9.399 -56.62,-14.27 -85.68,-12.481 -8.69,0.66 -17.61,0.754 -25.9,3.793 32.97,4.508 65.78,14.766 92.88,34.571 34.37,25.187 59.19,62.406 71.74,102.937 11.53,37.867 13.15,78.348 7.49,117.387 -7.57,51.871 -33.72,101.437 -74.55,134.687 -20.36,16.555 -44.77,27.789 -70.32,33.531 45.56,2.247 91.76,-10.386 129.54,-36.042 11.85,-7.821 22.62,-17.145 32.8,-26.997 17.35,16.137 36.68,30.079 57.1,42.094 0.06,-134.742 -0.06,-269.472 0.06,-404.203 61.78,0.047 123.56,-0.012 185.33,0.031 26.44,0.227 53.77,3.067 77.59,15.446 24.83,12.554 43.08,36.226 51.78,62.39 7.23,23.27 8.14,48.727 1.6,72.266 -7.1,24.613 -23.58,46.828 -46.24,59.144 -12.26,6.918 -25.87,11.114 -39.66,13.657 9.27,2.523 18.56,5.199 27.07,9.773 26.48,13.563 44.72,41.145 48.38,70.5 3.11,25.066 -1.08,51.504 -14.32,73.254 -12.04,19.605 -29.73,36.723 -51.92,44.027 -31.06,10.211 -64.16,9.414 -96.42,9.25 -28.27,0.059 -56.54,-0.117 -84.81,0.102 10.48,3.93 21.41,6.441 32.29,9.043 -22.23,34.98 -30.56,78.379 -22.56,119.074 8.93,47.852 40.83,90.621 83.97,113.071 z M 3902.48,861.578 c 59.97,6.559 121.78,-4.449 175.68,-31.652 51.44,-25.836 95.55,-66.035 126,-114.91 30.4,-48.215 46.66,-104.852 47.88,-161.766 V 542.84 C 4250.88,483.289 4233,424.098 4199.99,374.441 4168.11,326 4122.64,286.676 4070.13,262.133 c -86.15,-40.781 -190.95,-39.293 -275.83,4.137 -34.49,17.46 -65.98,41.175 -91.69,70.062 12.69,0.016 25.39,0.031 38.11,-0.012 0.06,22.434 0,44.887 0.03,67.325 -28.41,0.015 -56.77,0 -85.14,0 -14.96,29.914 -25.8,61.96 -30.81,95.058 47.67,5.156 94.13,21.203 134.61,46.965 15.71,9.609 29.79,21.531 44.11,33.07 9.68,-16.035 24.4,-28.742 41.5,-36.289 16.57,-7.832 34.28,-12.902 52.02,-17.441 24.1,-6.278 48.19,-12.574 72.33,-18.828 14.78,-3.809 30.17,-8.274 41.91,-18.512 15.7,-15.898 20.51,-42.895 8.6,-62.352 -7.71,-12.531 -20.52,-21.308 -34.22,-26.183 -14.38,-4.977 -29.74,-6.66 -44.86,-6.418 -23.74,-0.09 -48.46,2.988 -69.26,15.098 -17.86,10.105 -30.09,28.527 -33.94,48.523 -25.27,-5.02 -50.4,-10.703 -75.64,-15.969 5.42,-20 14.67,-39.144 28.25,-54.902 14.06,-16.711 32.87,-28.813 52.84,-37.371 34.36,-14.977 72.5,-19.641 109.71,-17.809 29.04,1.43 58.28,7.399 84.28,20.727 23.04,11.683 43.9,28.961 56.65,51.718 13.51,23.774 17.16,52.028 14.41,78.934 -2.85,23.129 -12.26,45.609 -27.36,63.402 -18.23,20.004 -44.11,30.618 -69.44,38.375 -21.15,5.973 -42.57,10.801 -63.81,16.278 -18.9,4.972 -38.54,8.328 -55.87,17.816 -14.75,7.535 -27.62,22.016 -26.84,39.492 4.95,6.485 8.12,14.075 11.77,21.325 2.55,5.039 4.69,10.3 6.08,15.789 15.65,13.007 36.92,16.015 56.66,15.957 21.18,0.058 43.85,-4.633 59.82,-19.493 8.77,-7.789 14.66,-18.226 18.66,-29.156 24.75,5.91 49.49,12.016 74.16,18.391 -6.79,25.609 -23.42,48.125 -45.56,62.558 -41.73,27.477 -94.19,35.028 -143.05,27.989 4.32,30.215 3.66,61.058 -0.84,91.191 z M 1381.21,704.773 c 24.58,0.032 49.16,-0.011 73.74,0.032 11.17,0.011 22.36,-1.731 32.98,-5.282 20.01,-6.582 36.96,-20.601 49.29,-37.472 22.26,-30.031 32.19,-67.914 31.99,-104.985 0.37,-27.566 -2.83,-55.64 -13.17,-81.371 -14.54,-36.949 -48.34,-66.304 -87.64,-73.465 -14.81,-3.035 -29.98,-1.667 -44.96,-1.968 -14.08,0.015 -28.15,0 -42.23,0.015 0,101.493 0,203.004 0,304.496 z m 417.33,-0.363 c 27.84,0 55.69,0 83.53,0 12.1,0.352 24.49,-0.039 35.97,-4.344 12.9,-4.75 25.5,-12.933 31.62,-25.683 5.91,-12.543 6.8,-27.039 4.43,-40.574 -3.15,-18.407 -15.68,-35.239 -33.03,-42.485 -9.91,-4.301 -20.86,-5.535 -31.57,-5.351 -30.36,0.179 -60.72,-0.258 -91.07,0.207 0.26,39.414 0.03,78.816 0.12,118.23 z m 1155.09,-0.297 c 37.84,-0.39 75.69,0.391 113.51,-0.39 15.5,-1.297 31.3,-5.852 43.5,-15.868 11.07,-8.796 18.66,-21.851 20.63,-35.882 2.46,-17.262 -0.4,-36.121 -11.24,-50.211 -7.02,-9.461 -17.19,-16.211 -28.2,-20.137 -13.71,-4.855 -28.4,-6.406 -42.86,-6.18 -31.79,0 -63.61,0.086 -95.37,-0.047 -0.18,42.907 -0.24,85.809 0.03,128.715 z M 1063.9,536.027 c 16.92,-2.734 33.46,-8.031 48.68,-15.953 43.67,-22.136 75.99,-64.98 85.36,-113.047 -44.68,-0.011 -89.35,0.032 -134.01,-0.011 -0.05,43.007 -0.02,86.004 -0.03,129.011 z m 734.64,-11.714 c 25.85,0.015 51.69,0.015 77.54,0.015 14.03,-0.285 28.29,1.055 42.12,-2.027 15.18,-3.235 29.41,-11.883 38.29,-24.727 9.38,-13.14 12.05,-30.164 9.6,-45.914 -1.7,-12.371 -7.45,-24.254 -16.7,-32.738 -12.6,-12.328 -30.66,-17.156 -47.88,-17.516 -34.32,-0.031 -68.65,0 -102.97,-0.015 -0.01,40.98 -0.03,81.957 0,122.922 z m 1155.03,-11.215 c 36.11,-0.137 72.24,0.011 108.38,-0.078 15.56,-41.118 31.1,-82.247 46.63,-123.375 -8.69,-11.836 -17.42,-23.879 -28.63,-33.52 -21.71,-19.414 -48.6,-33.898 -77.47,-38.68 -32.54,16.75 -70.88,21.024 -106.61,13.774 -2.32,1.719 -4.62,3.418 -6.88,5.113 21.48,0.031 42.99,-0.027 64.49,0.031 0.06,58.918 -0.12,117.825 0.09,176.735 z M 2789.72,354.98 c 26.59,-0.617 52.28,-15.128 66.49,-37.609 17.17,-26.769 16.9,-63.629 -1.43,-89.766 -18.15,-27.835 -54.46,-41.566 -86.61,-33.535 -10.22,2.434 -19.86,6.993 -28.47,12.965 -20.97,14.84 -34.07,40.09 -34,65.809 -0.5,24.222 10.93,47.832 29.22,63.504 20.68,-0.016 41.36,0.015 62.05,-0.016 -2.22,6.301 -4.83,12.453 -7.25,18.648 z M 1343.23,165.016 c 14.15,16.047 34.84,25.879 56.15,27.25 37.82,2.75 75.97,-24.364 83.57,-61.914 4.18,-13.247 3.41,-27.684 -0.03,-41.0082 -6.69,-25.6875 -26.92,-47.2969 -52.08,-55.7344 -22.35,-7.7735 -48.04,-5.2305 -68.33,6.9492 -19.03,11.1914 -33.03,30.4219 -37.92,51.9258 -5.82,25.3126 1.13,53.2536 18.64,72.5316" /><path
         id="path16"
         style="fill:#7c2570;fill-opacity:1;fill-rule:nonzero;stroke:none"
         d="m 1732.36,1166.56 c 21.84,4.78 45.7,0.4 64.02,-12.56 15.61,-10.59 27.08,-26.91 32.15,-45.02 4.83,-17.25 3.85,-36.1 -2.92,-52.7 -7.19,-18.03 -21.13,-33.17 -38.41,-42 -22.04,-11.43 -49.37,-11.87 -71.83,-1.33 -17.01,7.98 -31.2,21.96 -39.15,39 -11.14,23.18 -10.33,51.67 2.17,74.16 11.04,20.42 31.25,35.6 53.97,40.45 z M 78.8867,898.543 c 38.0353,43.355 88.1253,76.004 143.2263,93.059 13.762,-26.739 35.25,-49.434 61.024,-64.891 30.98,-18.723 68.367,-26.363 104.234,-21.777 37.699,4.558 73.43,23.043 99.133,50.98 27.461,-17.793 52.062,-39.836 73.055,-64.922 -21.188,-81.265 -8.133,-170.832 35.839,-242.461 -12.468,-4.48 -25.085,-8.586 -37.343,-13.683 -11.922,43.742 -23.926,87.472 -35.836,131.222 -26.274,-0.031 -52.543,0.09 -78.817,-0.062 -20.496,-83.25 -41.187,-166.457 -61.714,-249.695 -10.543,2.242 -21.383,1.621 -31.989,0.121 -22.058,83.207 -44.183,166.414 -66.215,249.625 -27.519,0 -55.039,0.07 -82.558,-0.032 25.113,-92.054 50.301,-184.07 75.433,-276.121 -23.914,-14.679 -42.136,-37.113 -55.105,-61.734 -5.578,-10.977 -9.695,-22.66 -12.691,-34.586 -51.372,18.566 -97.672,50.785 -133.0161,92.41 C 42.4492,524.84 18.9141,571.82 7.94922,621.688 3.96484,639.223 1.9375,657.117 0.6875,675.012 v 30.394 C 1.58984,718.672 2.85547,731.918 5.19922,745 14.9453,801.695 40.8828,855.414 78.8867,898.543 Z M 2458.02,923.75 c 48.08,27.652 103.57,41.773 158.97,41.445 56.14,-0.664 112.22,-16 160.19,-45.343 2.91,-1.727 5.84,-4.028 9.47,-3.711 -0.06,-0.528 -0.16,-1.567 -0.22,-2.094 4.77,-3.125 9.5,-6.344 14.2,-9.625 -16.88,-55.567 -18.06,-115.746 -3.42,-171.93 12.39,-48.023 36.63,-92.746 69.47,-129.859 -26.79,-22.153 -46.38,-52.891 -54.56,-86.695 -8.44,-34.618 -5.44,-71.989 8.93,-104.637 -12.94,-11.356 -26.94,-21.446 -41.51,-30.574 -19.23,48.457 -38.39,96.937 -57.63,145.39 24.46,9.91 47.38,25.895 61,48.953 15.38,25.535 18.33,56.602 14.92,85.703 -3.06,24.735 -13.91,48.516 -31.27,66.485 -15.27,16.355 -36.07,26.66 -57.58,32.094 -20.57,5.304 -41.93,7.019 -63.1,6.718 -61.26,-0.011 -122.52,0.016 -183.78,-0.011 -0.02,-130.914 0,-261.836 0,-392.762 -60.49,33.086 -109.3,86.758 -136.91,149.887 9.56,0.062 19.14,-0.106 28.72,0.136 -0.18,20.875 -0.07,41.731 -0.06,62.606 -16.27,0.152 -32.55,0.031 -48.81,0.058 -7.15,38.141 -8.4,77.465 -1.95,115.797 29.95,0 59.89,-0.015 89.83,0 0.02,21.43 -0.02,42.844 0.03,64.258 -23.99,0.059 -47.96,0.02 -71.91,0.031 26.03,66.078 75.22,122.621 136.98,157.68 z m -894.78,-13.914 c 75.05,23.852 158.95,18.215 230.13,-15.547 -8,-40.695 0.33,-84.094 22.56,-119.074 -10.88,-2.602 -21.81,-5.113 -32.29,-9.043 -19.48,-0.238 -38.95,-0.027 -58.43,-0.102 -0.01,-8.511 0,-17.023 -0.01,-25.535 -20.42,-12.015 -39.75,-25.957 -57.1,-42.094 -10.18,9.852 -20.95,19.176 -32.8,26.997 -37.78,25.656 -83.98,38.289 -129.54,36.042 -13.76,2.754 -27.75,4.559 -41.79,4.606 -26.33,-0.027 -52.67,-0.016 -79,-0.016 15.48,28.211 36.35,53.207 59.78,75.149 33.89,31.097 74.56,54.844 118.49,68.617 z m 976.3,-205.801 c 36.98,-0.09 73.98,0.168 110.96,-0.133 16.5,-1.011 33.53,-5.41 46.44,-16.226 11.82,-9.418 19.47,-23.778 20.84,-38.813 1.71,-16.965 -1.74,-35.207 -12.78,-48.621 -9.03,-11.34 -22.57,-18.215 -36.5,-21.414 -11.82,-2.906 -24.04,-3.64 -36.14,-3.371 -30.93,0.02 -61.88,0 -92.8,0 -0.02,42.859 -0.02,85.723 -0.02,128.578 z M 1217.7,549.383 c 16.76,48.707 45.87,92.937 83.43,128.129 0,-97.766 -0.01,-195.516 0,-293.282 -17.25,6.934 -35.82,11.235 -54.49,10.649 -0.01,4.074 -0.05,8.133 -0.13,12.191 -14.44,-0.086 -28.88,-0.011 -43.31,-0.043 -6.45,47.703 -1.08,96.864 14.5,142.356 z M 475.691,650.727 c 5.594,-18.407 10.137,-37.114 15.336,-55.645 -13.5,-8.809 -24.613,-20.644 -36.812,-31.086 7.176,28.906 14.015,57.902 21.476,86.731 z M 3367.43,589.145 c 27.44,-26.391 58.8,-49.266 93.95,-64.321 0.06,-62.828 0,-125.648 0.03,-188.476 80.39,-0.016 160.78,0.015 241.2,-0.016 25.71,-28.887 57.2,-52.602 91.69,-70.062 -31.27,-26.364 -67.64,-46.711 -106.59,-59.192 -61,-19.82 -128,-20.121 -189.35,-1.594 l 0.23,-1.894 c -2.61,17.672 -10.93,34.422 -23.64,46.98 -14.64,13.731 -34.2,23.039 -54.55,22.66 -11.73,0.286 -23.67,-1.109 -34.45,-6.015 -23.33,19.957 -43.97,43.191 -60.43,69.117 13.94,0.016 27.91,0 41.88,0.016 0.03,84.261 0,168.535 0.03,252.797 z m -89.75,-39.313 c 3.94,2.723 7.85,5.535 11.88,8.184 -0.03,-47.735 0.12,-95.481 -0.06,-143.211 -4.81,11.804 -7.04,24.433 -9.42,36.902 -5.97,32.348 -5.88,65.508 -2.4,98.125 z m -738.12,-36.781 c 36.18,-0.016 72.38,0.027 108.57,-0.031 20.59,-54.739 41.33,-109.418 62.01,-164.129 -54.98,-17.25 -114.61,-19.43 -170.6,-5.762 0,56.637 0,113.269 0.02,169.922 z m 999.66,-11.91 c 28.26,-4.555 57.09,-5.493 85.58,-2.438 5.01,-33.098 15.85,-65.144 30.81,-95.058 -38.81,0 -77.61,0 -116.39,0 0,32.496 0,64.996 0,97.496 z M 1504.42,334.574 c 29.06,-1.789 58.22,3.082 85.68,12.481 24.43,-60.242 68.33,-112.262 123.22,-147.032 -55.27,-44.39 -125.82,-69.492 -196.78,-69.039 -11.08,-0.453 -22.13,1.204 -33.19,0.871 -0.1,-0.375 -0.3,-1.125 -0.4,-1.503 -7.6,37.55 -45.75,64.664 -83.57,61.914 7.41,30.359 6.16,62.754 -3.33,92.531 -6.49,18.664 -16.37,36.031 -28.57,51.535 37.01,0.465 74.13,-1.336 111.04,2.035 8.29,-3.039 17.21,-3.133 25.9,-3.793" /><path
         id="path18"
         style="fill:#bb3c95;fill-opacity:1;fill-rule:nonzero;stroke:none"
         d="m 3550.87,1125.34 c 46.54,5.74 94.33,1.38 138.87,-13.36 43.06,-14.19 82.97,-37.8 116.06,-68.77 51.33,-47.472 85.99,-112.515 96.68,-181.632 4.5,-30.133 5.16,-60.976 0.84,-91.191 -38.54,-5.594 -76.53,-24.766 -99.14,-57.254 -15.27,-22.164 -21.04,-49.82 -19.21,-76.438 1.24,-20.468 7.71,-40.543 18.55,-57.957 -14.32,-11.539 -28.4,-23.461 -44.11,-33.07 -40.48,-25.762 -86.94,-41.809 -134.61,-46.965 -28.49,-3.055 -57.32,-2.117 -85.58,2.438 -0.03,7.351 -0.03,14.691 0,22.043 53.3,0.152 106.56,-0.223 159.85,0.195 -0.14,20.863 -0.02,41.734 -0.05,62.605 -53.27,-0.011 -106.5,0.032 -159.77,-0.011 -0.09,38.601 0,77.191 0,115.793 66.22,-0.012 132.46,0.074 198.71,-0.047 0.29,21.445 0.06,42.89 0.15,64.34 -92.24,0 -184.48,0.058 -276.73,-0.02 0.03,-80.41 0.03,-160.805 0,-241.215 -35.15,15.055 -66.51,37.93 -93.95,64.321 -0.03,58.964 -0.03,117.933 0,176.894 -25.94,0.059 -51.9,0.02 -77.84,0.031 -0.06,-15.265 0.09,-30.527 -0.12,-45.777 -6.49,17.578 -9.53,36.258 -11.97,54.785 -4.05,34.934 -2.37,70.531 5.11,104.91 10.31,48.407 32.83,94.004 64.07,132.322 15.85,19.25 33.94,36.65 53.82,51.73 3.76,-12.52 10.28,-24.3 19.44,-33.72 17.15,-18.23 43.18,-27.32 67.99,-24.5 23.53,2.37 45.47,15.88 58.62,35.47 16.75,24.36 18.43,58.08 4.32,84.05 z M 2237,1004.73 c 69.71,21.41 144.22,26.72 216.32,15.95 57.31,-8.45 112.96,-27.516 163.67,-55.485 -55.4,0.328 -110.89,-13.793 -158.97,-41.445 -61.76,-35.059 -110.95,-91.602 -136.98,-157.68 -68.28,0 -136.55,0.016 -204.83,-0.011 -0.01,-29.161 0.02,-58.321 -0.01,-87.481 -4.02,3.969 -7.96,8 -11.93,11.985 -15.74,16.164 -33.82,29.761 -52.47,42.363 15.79,12.844 30.2,27.64 40.61,45.25 29.41,47.07 31.77,109.437 6.3,158.719 42.21,29.605 88.95,52.808 138.29,67.835 z M 1162.87,916.992 c 51.19,11.266 105.18,9.688 155.59,-4.762 46.84,-13.414 90.51,-37.898 126.29,-71.011 -23.43,-21.942 -44.3,-46.938 -59.78,-75.149 -27.94,-0.011 -55.88,0.016 -83.84,-0.011 -0.01,-29.508 0,-59.032 0,-88.547 -37.56,-35.192 -66.67,-79.422 -83.43,-128.129 -15.58,-45.492 -20.95,-94.653 -14.5,-142.356 -1.77,0.016 -3.53,0.016 -5.26,0 -9.37,48.067 -41.69,90.911 -85.36,113.047 -15.22,7.922 -31.76,13.219 -48.68,15.953 0,10.465 0,20.918 0,31.371 54.33,43.762 93.37,106.141 108.79,174.219 13.05,57.824 9.93,119.422 -9.82,175.375 z m 1623.78,-0.851 c 6.32,1.531 12.69,2.839 19.15,3.91 -1.87,-5.176 -3.58,-10.395 -5.17,-15.629 -4.7,3.281 -9.43,6.5 -14.2,9.625 0.06,0.527 0.16,1.566 0.22,2.094 z m -592.6,-214.36 c 36.35,-0.015 72.7,0 109.04,0 -6.45,-38.332 -5.2,-77.656 1.95,-115.797 -37.04,0.137 -74.09,-0.254 -111.11,0.196 0.26,38.527 0.02,77.074 0.12,115.601 z m 1670.73,-44.754 c -0.46,14.36 6.64,28.317 17.85,37.114 -1.39,-5.489 -3.53,-10.75 -6.08,-15.789 -3.65,-7.25 -6.82,-14.84 -11.77,-21.325 z M 3146.34,499.605 c 46.69,7.125 92.04,23.852 131.34,50.227 -3.48,-32.617 -3.57,-65.777 2.4,-98.125 2.38,-12.469 4.61,-25.098 9.42,-36.902 0.2,-26.153 -0.03,-52.321 0.12,-78.485 11.94,0.043 23.9,0.028 35.9,0.012 16.46,-25.926 37.1,-49.16 60.43,-69.117 -24.93,-10.387 -43.88,-33.942 -48.4,-60.606 -2.84,-14.796 -1.01,-30.238 4.2,-44.316 -77.23,-37.762 -170.11,-41.625 -250.3,-10.703 3.48,30.66 -1.22,62.469 -14.78,90.289 -15.3,32.559 -41.96,59.609 -74.19,75.566 28.87,4.782 55.76,19.266 77.47,38.68 11.21,9.641 19.94,21.684 28.63,33.52 6.78,-17.762 13.39,-35.582 20.2,-53.325 27.38,0.164 54.77,-0.211 82.16,0.192 -21.59,54.347 -43.04,108.746 -64.6,163.093 z m -952.27,23.579 c 43.7,0.031 87.4,0.019 131.12,0 27.61,-63.129 76.42,-116.801 136.91,-149.887 0.06,-12.332 -0.15,-24.66 0.11,-36.992 25.77,0.09 51.54,0.015 77.31,0.043 -0.04,2.269 -0.02,4.527 0.02,6.781 55.99,-13.668 115.62,-11.488 170.6,5.762 1.53,-4.106 3.04,-8.227 4.51,-12.379 6.74,-0.254 13.5,-0.192 20.27,-0.164 -18.29,-15.672 -29.72,-39.282 -29.22,-63.504 -0.07,-25.719 13.03,-50.969 34,-65.809 C 2684,146.43 2612.78,100.188 2534.61,74.3359 2416.41,34.7852 2283.08,42.7383 2170.65,96.6797 c -49.7,23.6403 -95.35,55.7773 -134.35,94.5933 58.15,32.665 105.91,84.094 133.13,145.059 75.35,-0.012 150.69,0.063 226.03,-0.027 0.2,22.437 0.04,44.89 0.09,67.34 -67.17,0.015 -134.34,-0.016 -201.5,0.015 0.06,8.18 -0.25,16.36 0.14,24.528 2.88,6.468 2.47,13.656 3.06,20.558 0.67,12.047 0.59,24.137 -0.01,36.184 -0.61,6.886 -0.15,14.07 -3.04,20.511 -0.32,5.911 -0.2,11.832 -0.13,17.743 z m 626.98,-111.883 c 11.74,-26.653 30.7,-50.227 54.59,-66.965 -0.03,-2.664 0,-5.324 0.06,-8.004 4.4,0.016 8.84,0.016 13.29,0 2.26,-1.695 4.56,-3.394 6.88,-5.113 -13.72,-3.035 -27.06,-7.672 -39.66,-13.848 -14.21,22.481 -39.9,36.992 -66.49,37.609 -3.36,8.602 -6.87,17.145 -10.18,25.747 14.57,9.128 28.57,19.218 41.51,30.574" /><path
         id="path20"
         style="fill:#ffffff;fill-opacity:1;fill-rule:nonzero;stroke:none"
         d="m 3903.32,770.387 c 48.86,7.039 101.32,-0.512 143.05,-27.989 22.14,-14.433 38.77,-36.949 45.56,-62.558 -24.67,-6.375 -49.41,-12.481 -74.16,-18.391 -4,10.93 -9.89,21.367 -18.66,29.156 -15.97,14.86 -38.64,19.551 -59.82,19.493 -19.74,0.058 -41.01,-2.95 -56.66,-15.957 -11.21,-8.797 -18.31,-22.754 -17.85,-37.114 -0.78,-17.476 12.09,-31.957 26.84,-39.492 17.33,-9.488 36.97,-12.844 55.87,-17.816 21.24,-5.477 42.66,-10.305 63.81,-16.278 25.33,-7.757 51.21,-18.371 69.44,-38.375 15.1,-17.793 24.51,-40.273 27.36,-63.402 2.75,-26.906 -0.9,-55.16 -14.41,-78.934 -12.75,-22.757 -33.61,-40.035 -56.65,-51.718 -26,-13.328 -55.24,-19.297 -84.28,-20.727 -37.21,-1.832 -75.35,2.832 -109.71,17.809 -19.97,8.558 -38.78,20.66 -52.84,37.371 -13.58,15.758 -22.83,34.902 -28.25,54.902 25.24,5.266 50.37,10.949 75.64,15.969 3.85,-19.996 16.08,-38.418 33.94,-48.523 20.8,-12.11 45.52,-15.188 69.26,-15.098 15.12,-0.242 30.48,1.441 44.86,6.418 13.7,4.875 26.51,13.652 34.22,26.183 11.91,19.457 7.1,46.454 -8.6,62.352 -11.74,10.238 -27.13,14.703 -41.91,18.512 -24.14,6.254 -48.23,12.55 -72.33,18.828 -17.74,4.539 -35.45,9.609 -52.02,17.441 -17.1,7.547 -31.82,20.254 -41.5,36.289 -10.84,17.414 -17.31,37.489 -18.55,57.957 -1.83,26.618 3.94,54.274 19.21,76.438 22.61,32.488 60.6,51.66 99.14,57.254 z m -3702.394,-4.36 c 27.519,0.102 55.039,0.032 82.558,0.032 22.032,-83.211 44.157,-166.418 66.215,-249.625 5.578,-20.618 10.723,-41.356 16.617,-61.899 5.262,20.559 10.18,41.203 15.372,61.778 20.527,83.238 41.218,166.445 61.714,249.695 26.274,0.152 52.543,0.031 78.817,0.062 11.91,-43.75 23.914,-87.48 35.836,-131.222 16.484,-60.2 32.875,-120.414 49.371,-180.598 11.91,44.68 23.34,89.492 35.07,134.23 15.367,59.161 30.902,118.278 46.156,177.473 22.914,0.254 45.832,0.055 68.766,0.106 C 737.734,692.156 717.926,618.285 698.199,544.406 679.641,475.063 661.098,405.707 642.57,336.348 c -27.113,-0.028 -54.211,0.047 -81.328,-0.043 -23.562,86.211 -46.781,172.535 -70.215,258.777 -5.199,18.531 -9.742,37.238 -15.336,55.645 -7.461,-28.829 -14.3,-57.825 -21.476,-86.731 -18.781,-75.883 -37.192,-151.855 -56.121,-227.691 -26.59,0.09 -53.176,0.027 -79.766,0.027 -14.015,51.191 -27.969,102.383 -41.969,153.574 -25.132,92.051 -50.32,184.067 -75.433,276.121 z m 609.519,-0.062 c 25.957,0.242 51.914,0.043 77.883,0.094 0.016,-89.407 -0.015,-178.825 0.016,-268.243 -0.016,-19.461 -0.047,-38.921 0.015,-58.378 -0.168,-34.395 0.18,-68.77 -0.168,-103.149 -2.796,0.031 -5.593,0.043 -8.359,0.043 -23.113,0.047 -46.227,-0.027 -69.344,0.031 0.016,55.086 0.016,110.157 0,165.242 -0.015,88.11 0.094,176.235 -0.043,264.36 z m 171.871,0.094 c 27.194,0.027 54.394,0.011 81.584,0.011 0,-66.226 0,-132.441 0,-198.672 0,-10.453 0,-20.906 0,-31.371 0.01,-43.007 -0.02,-86.004 0.03,-129.011 44.66,0.043 89.33,0 134.01,0.011 1.73,0.016 3.49,0.016 5.26,0 14.43,0.032 28.87,-0.043 43.31,0.043 0.08,-4.058 0.12,-8.117 0.13,-12.191 -0.04,-19.508 -0.02,-39.012 -0.01,-58.516 -16.77,-0.043 -33.52,0 -50.27,-0.031 -71.34,0.016 -142.67,0.016 -213.993,0 -0.109,143.242 -0.035,286.481 -0.051,429.727 z m 318.814,0 c 27.96,0.027 55.9,0 83.84,0.011 26.33,0 52.67,-0.011 79,0.016 14.04,-0.047 28.03,-1.852 41.79,-4.606 25.55,-5.742 49.96,-16.976 70.32,-33.531 40.83,-33.25 66.98,-82.816 74.55,-134.687 5.66,-39.039 4.04,-79.52 -7.49,-117.387 -12.55,-40.531 -37.37,-77.75 -71.74,-102.937 -27.1,-19.805 -59.91,-30.063 -92.88,-34.571 -36.91,-3.371 -74.03,-1.57 -111.04,-2.035 -22.07,-0.012 -44.16,0.063 -66.24,-0.027 -0.24,15.968 -0.05,31.953 -0.11,47.925 -0.01,97.766 0,195.516 0,293.282 0,29.515 -0.01,59.039 0,88.547 z m 80.08,-61.286 c 0,-101.492 0,-203.003 0,-304.496 14.08,-0.015 28.15,0 42.23,-0.015 14.98,0.301 30.15,-1.067 44.96,1.968 39.3,7.161 73.1,36.516 87.64,73.465 10.34,25.731 13.54,53.805 13.17,81.371 0.2,37.071 -9.73,74.954 -31.99,104.985 -12.33,16.871 -29.28,30.89 -49.29,37.472 -10.62,3.551 -21.81,5.293 -32.98,5.282 -24.58,-0.043 -49.16,0 -73.74,-0.032 z m 344,61.297 c 19.48,0.075 38.95,-0.136 58.43,0.102 28.27,-0.219 56.54,-0.043 84.81,-0.102 32.26,0.164 65.36,0.961 96.42,-9.25 22.19,-7.304 39.88,-24.422 51.92,-44.027 13.24,-21.75 17.43,-48.188 14.32,-73.254 -3.66,-29.355 -21.9,-56.937 -48.38,-70.5 -8.51,-4.574 -17.8,-7.25 -27.07,-9.773 13.79,-2.543 27.4,-6.739 39.66,-13.657 22.66,-12.316 39.14,-34.531 46.24,-59.144 6.54,-23.539 5.63,-48.996 -1.6,-72.266 -8.7,-26.164 -26.95,-49.836 -51.78,-62.39 -23.82,-12.379 -51.15,-15.219 -77.59,-15.446 -61.77,-0.043 -123.55,0.016 -185.33,-0.031 -0.12,134.731 0,269.461 -0.06,404.203 0.01,8.512 0,17.024 0.01,25.535 z m 73.33,-61.66 c -0.09,-39.414 0.14,-78.816 -0.12,-118.23 30.35,-0.465 60.71,-0.028 91.07,-0.207 10.71,-0.184 21.66,1.05 31.57,5.351 17.35,7.246 29.88,24.078 33.03,42.485 2.37,13.535 1.48,28.031 -4.43,40.574 -6.12,12.75 -18.72,20.933 -31.62,25.683 -11.48,4.305 -23.87,4.696 -35.97,4.344 -27.84,0 -55.69,0 -83.53,0 z m 0,-180.097 c -0.03,-40.965 -0.01,-81.942 0,-122.922 34.32,0.015 68.65,-0.016 102.97,0.015 17.22,0.36 35.28,5.188 47.88,17.516 9.25,8.484 15,20.367 16.7,32.738 2.45,15.75 -0.22,32.774 -9.6,45.914 -8.88,12.844 -23.11,21.492 -38.29,24.727 -13.83,3.082 -28.09,1.742 -42.12,2.027 -25.85,0 -51.69,0 -77.54,-0.015 z m 317.67,241.746 c 68.28,0.027 136.55,0.011 204.83,0.011 23.95,-0.011 47.92,0.028 71.91,-0.031 -0.05,-21.414 -0.01,-42.828 -0.03,-64.258 -29.94,-0.015 -59.88,0 -89.83,0 -36.34,0 -72.69,-0.015 -109.04,0 -0.1,-38.527 0.14,-77.074 -0.12,-115.601 37.02,-0.45 74.07,-0.059 111.11,-0.196 16.26,-0.027 32.54,0.094 48.81,-0.058 -0.01,-20.875 -0.12,-41.731 0.06,-62.606 -9.58,-0.242 -19.16,-0.074 -28.72,-0.136 -43.72,0.019 -87.42,0.031 -131.12,0 -0.07,-5.911 -0.19,-11.832 0.13,-17.743 -0.28,-25.75 -0.27,-51.507 -0.01,-77.253 -0.39,-8.168 -0.08,-16.348 -0.14,-24.528 67.16,-0.031 134.33,0 201.5,-0.015 -0.05,-22.45 0.11,-44.903 -0.09,-67.34 -75.34,0.09 -150.68,0.015 -226.03,0.027 -17.68,-0.012 -35.37,0.109 -53.05,-0.059 -0.41,114.094 -0.04,228.207 -0.18,342.305 0.03,29.16 0,58.32 0.01,87.481 z m 345.89,0 c 61.26,0.027 122.52,0 183.78,0.011 21.17,0.301 42.53,-1.414 63.1,-6.718 21.51,-5.434 42.31,-15.739 57.58,-32.094 17.36,-17.969 28.21,-41.75 31.27,-66.485 3.41,-29.101 0.46,-60.168 -14.92,-85.703 -13.62,-23.058 -36.54,-39.043 -61,-48.953 19.24,-48.453 38.4,-96.933 57.63,-145.39 3.31,-8.602 6.82,-17.145 10.18,-25.747 2.42,-6.195 5.03,-12.347 7.25,-18.648 -20.69,0.031 -41.37,0 -62.05,0.016 -6.77,-0.028 -13.53,-0.09 -20.27,0.164 -1.47,4.152 -2.98,8.273 -4.51,12.379 -20.68,54.711 -41.42,109.39 -62.01,164.129 -36.19,0.058 -72.39,0.015 -108.57,0.031 -0.02,-56.653 -0.02,-113.285 -0.02,-169.922 -0.04,-2.254 -0.06,-4.512 -0.02,-6.781 -25.77,-0.028 -51.54,0.047 -77.31,-0.043 -0.26,12.332 -0.05,24.66 -0.11,36.992 0,130.926 -0.02,261.848 0,392.762 z m 77.44,-62.024 c 0,-42.855 0,-85.719 0.02,-128.578 30.92,0 61.87,0.02 92.8,0 12.1,-0.269 24.32,0.465 36.14,3.371 13.93,3.199 27.47,10.074 36.5,21.414 11.04,13.414 14.49,31.656 12.78,48.621 -1.37,15.035 -9.02,29.395 -20.84,38.813 -12.91,10.816 -29.94,15.215 -46.44,16.226 -36.98,0.301 -73.98,0.043 -110.96,0.133 z m 336.11,62.024 c 50.76,0.027 101.53,0.011 152.31,0.011 28.6,-0.226 57.58,1.504 85.78,-4.59 26.37,-5.199 52.45,-17.035 70.07,-37.953 19.21,-21.566 28.78,-50.543 29.1,-79.207 0.72,-25.734 -4.44,-52.468 -19.19,-73.976 -13.74,-20.555 -35.01,-34.961 -57.7,-44.031 3.05,-9.04 6.9,-17.79 10.32,-26.708 21.56,-54.347 43.01,-108.746 64.6,-163.093 -27.39,-0.403 -54.78,-0.028 -82.16,-0.192 -6.81,17.743 -13.42,35.563 -20.2,53.325 -15.53,41.128 -31.07,82.257 -46.63,123.375 -36.14,0.089 -72.27,-0.059 -108.38,0.078 -0.21,-58.91 -0.03,-117.817 -0.09,-176.735 -21.5,-0.058 -43.01,0 -64.49,-0.031 -4.45,0.016 -8.89,0.016 -13.29,0 -0.06,2.68 -0.09,5.34 -0.06,8.004 0.04,140.578 -0.02,281.156 0.01,421.723 z m 77.98,-61.946 c -0.27,-42.906 -0.21,-85.808 -0.03,-128.715 31.76,0.133 63.58,0.047 95.37,0.047 14.46,-0.226 29.15,1.325 42.86,6.18 11.01,3.926 21.18,10.676 28.2,20.137 10.84,14.09 13.7,32.949 11.24,50.211 -1.97,14.031 -9.56,27.086 -20.63,35.882 -12.2,10.016 -28,14.571 -43.5,15.868 -37.82,0.781 -75.67,0 -113.51,0.39 z m 335.96,61.957 c 25.94,-0.011 51.9,0.028 77.84,-0.031 -0.03,-58.961 -0.03,-117.93 0,-176.894 -0.03,-84.262 0,-168.536 -0.03,-252.797 -13.97,-0.016 -27.94,0 -41.88,-0.016 -12,0.016 -23.96,0.031 -35.9,-0.012 -0.15,26.164 0.08,52.332 -0.12,78.485 0.18,47.73 0.03,95.476 0.06,143.211 -0.06,54.093 0.17,108.183 -0.09,162.277 0.21,15.25 0.06,30.512 0.12,45.777 z m 171.79,-0.031 c 92.25,0.078 184.49,0.02 276.73,0.02 -0.09,-21.45 0.14,-42.895 -0.15,-64.34 -66.25,0.121 -132.49,0.035 -198.71,0.047 0,-38.602 -0.09,-77.192 0,-115.793 53.27,0.043 106.5,0 159.77,0.011 0.03,-20.871 -0.09,-41.742 0.05,-62.605 -53.29,-0.418 -106.55,-0.043 -159.85,-0.195 -0.03,-7.352 -0.03,-14.692 0,-22.043 0,-32.5 0,-65 0,-97.496 38.78,0 77.58,0 116.39,0 28.37,0 56.73,0.015 85.14,0 -0.03,-22.438 0.03,-44.891 -0.03,-67.325 -12.72,0.043 -25.42,0.028 -38.11,0.012 -80.42,0.031 -160.81,0 -241.2,0.016 -0.03,62.828 0.03,125.648 -0.03,188.476 0.03,80.41 0.03,160.805 0,241.215" /><path
         id="path22"
         style="fill:#8e2880;fill-opacity:1;fill-rule:nonzero;stroke:none"
         d="m 595.398,648.531 c 13.204,-21.851 29.383,-41.734 47.098,-60.051 -11.73,-44.738 -23.16,-89.55 -35.07,-134.23 -16.496,60.184 -32.887,120.398 -49.371,180.598 12.258,5.097 24.875,9.203 37.343,13.683 z M 454.215,563.996 c 12.199,10.442 23.312,22.277 36.812,31.086 23.434,-86.242 46.653,-172.566 70.215,-258.777 27.117,0.09 54.215,0.015 81.328,0.043 18.528,69.359 37.071,138.715 55.629,208.058 34.391,-21.011 72.512,-36 112.289,-42.801 0.016,-55.085 0.016,-110.156 0,-165.242 23.117,-0.058 46.231,0.016 69.344,-0.031 11.504,-49.234 47.793,-91.672 94.383,-111.164 C 948.168,161.258 900.48,106.484 840.766,71.8828 787.664,40.7695 725.254,26.0313 663.836,29.7148 608.297,32.707 553.723,50.9492 507.465,81.8086 464.172,110.531 428.168,150.129 403.719,195.965 c -29.821,-6.617 -61.524,-5.277 -90.399,4.902 -42.09,14.36 -77.461,46.906 -95.386,87.602 -14.692,32.703 -17.805,70.332 -9.371,105.117 2.996,11.926 7.113,23.609 12.691,34.586 12.969,24.621 31.191,47.055 55.105,61.734 14,-51.191 27.954,-102.383 41.969,-153.574 26.59,0 53.176,0.063 79.766,-0.027 18.929,75.836 37.34,151.808 56.121,227.691 z M 349.699,516.434 c 10.606,1.5 21.446,2.121 31.989,-0.121 -5.192,-20.575 -10.11,-41.219 -15.372,-61.778 -5.894,20.543 -11.039,41.281 -16.617,61.899 z m 538.645,-18.618 c 16.992,0.887 33.668,4.348 50.41,7.25 -4.516,-4.664 -9.703,-8.558 -14.316,-13.086 -15.325,-14.906 -27.825,-32.812 -36.079,-52.542 -0.062,19.457 -0.031,38.917 -0.015,58.378 z M 1246.64,394.879 c 18.67,0.586 37.24,-3.715 54.49,-10.649 0.06,-15.972 -0.13,-31.957 0.11,-47.925 22.08,0.09 44.17,0.015 66.24,0.027 12.2,-15.504 22.08,-32.871 28.57,-51.535 9.49,-29.777 10.74,-62.172 3.33,-92.531 -21.31,-1.371 -42,-11.203 -56.15,-27.25 -17.51,-19.278 -24.46,-47.219 -18.64,-72.5316 -13.82,-8.0117 -28.71,-14.2266 -44.24,-17.9844 -44.69,-11.082 -93.92,-2.2109 -131.66,24.2422 -39.16,26.7848 -65.27,71.4138 -69.54,118.6528 56.95,14.257 103.82,61.761 117.21,118.937 16.75,0.031 33.5,-0.012 50.27,0.031 -0.01,19.504 -0.03,39.008 0.01,58.516 z m 1649.23,-63.66 c 35.73,7.25 74.07,2.976 106.61,-13.774 32.23,-15.957 58.89,-43.007 74.19,-75.566 13.56,-27.82 18.26,-59.629 14.78,-90.289 -5.13,-41.57 -26.92,-80.8205 -59.73,-106.883 -23.96,-19.5039 -53.63,-31.4453 -84.24,-35.06637 h -34.86 c -52.67,5.21877 -101.58,37.91017 -126.4,84.66407 -16.44,30.2263 -22.63,65.7183 -18.05,99.7653 32.15,-8.031 68.46,5.7 86.61,33.535 18.33,26.137 18.6,62.997 1.43,89.766 12.6,6.176 25.94,10.813 39.66,13.848 z m 490.08,-64.004 c 10.78,4.906 22.72,6.301 34.45,6.015 20.35,0.379 39.91,-8.929 54.55,-22.66 12.71,-12.558 21.03,-29.308 23.64,-46.98 4,-26.676 -6.35,-54.922 -26.69,-72.637 -21.62,-19.562 -54.08,-25.656 -81.44,-15.758 -22.08,7.637 -40.19,25.414 -48.71,47.098 -5.21,14.078 -7.04,29.52 -4.2,44.316 4.52,26.664 23.47,50.219 48.4,60.606" /><path
         id="path24"
         style="fill:#e4248c;fill-opacity:1;fill-rule:nonzero;stroke:none"
         d="m 2194.2,505.441 c 2.89,-6.441 2.43,-13.625 3.04,-20.511 0.6,-12.047 0.68,-24.137 0.01,-36.184 -0.59,-6.902 -0.18,-14.09 -3.06,-20.558 -0.26,25.746 -0.27,51.503 0.01,77.253" /></g></g></svg>