<?xml version="1.0" encoding="utf-8"?>
<!-- Generator: Adobe Illustrator 26.1.0, SVG Export Plug-In . SVG Version: 6.00 Build 0)  -->
<svg version="1.1" id="katman_1" xmlns="http://www.w3.org/2000/svg" xmlns:xlink="http://www.w3.org/1999/xlink" x="0px" y="0px"
	 viewBox="0 0 444 82.1" style="enable-background:new 0 0 444 82.1;" xml:space="preserve">
<style type="text/css">
	.st0{fill:#FED42B;}
	.st1{fill:#FC3F1D;}
	.st2{fill:#FFFFFF;}
	.st3{clip-path:url(#SVGID_00000075847157757146857840000014833966804372438153_);}
</style>
<path d="M209.3,69.1h8.2L230,23.7v45.4h10v-60h-12.2l-13,44l-13-44H187v60h9V23.7L209.3,69.1z M281,39.6c0-10.7-5.3-14.7-16.3-14.7
	c-6.9,0-15.7,4-15.7,4v8.7c2.6-2.1,8.6-4.3,13.9-4.3c5,0,7.1,1.9,7.1,6.4v2.4h-1.6c-15.5,0-22.6,5.3-22.6,14.1s5.2,13.8,13.1,13.8
	c6,0,8.6-1.9,10.5-4h1.1c0,0,0.5,2.6,0.8,4h10.2c-0.3-4.1-0.5-7.8-0.5-11.3C281,58.8,281,39.6,281,39.6z M271,59.1
	c-1.7,1.9-4.1,3.5-7.9,3.5c-4.3,0-6.4-2.7-6.4-6.4c0-5.1,3.5-6.9,12.6-7.1h0.7v10H271L271,59.1L271,59.1z M298.2,26.1H289v56h10
	V64.6c2.6,4,6.2,5.9,10.6,5.9c9.8,0,16.4-7.9,16.4-22.5s-6.4-22.5-16-22.5c-4.6,0-8.5,2.1-11.3,6.4
	C298.8,31.7,298.2,26.1,298.2,26.1z M307.8,62.3c-5.3,0-8.3-4.5-8.3-14.4c0-10.2,2.9-14.7,8.8-14.7c5.6,0,8.5,4.5,8.5,14.4
	C316.8,57.8,313.9,62.3,307.8,62.3z M359.6,70.1H371l-16-23.6l14.1-20.4h-10L345,46.5V26.1h-10v44h10V48.6L359.6,70.1z M406,66.6
	v-8.5c-2.6,2.1-7.9,4-13,4c-7.5,0-10.4-3.5-11-11h25v-5.6c-0.2-15.2-6.9-20.8-17.3-20.8c-12.6,0-18.7,9.6-18.7,23
	c0,15.2,7.5,22.7,20.6,22.7C398.9,70.3,403.7,68.7,406,66.6z M390.3,33.7c5.1,0,6.7,4.3,6.7,9.6v0.8h-14.5
	C382.8,37.2,385.5,33.7,390.3,33.7z M444,34.1v-8h-35v8h13v36h10v-36H444z"/>
<path class="st0" d="M125.8,80.2c22.2,0,40.1-17.9,40.1-40.1S148,0,125.8,0S85.7,17.9,85.7,40.1C85.5,62.3,103.7,80.2,125.8,80.2z"
	/>
<circle class="st1" cx="40.1" cy="40.1" r="40.1"/>
<path class="st2" d="M47,23.1h-5.2c-6.8,0-10.2,3.4-10.2,8.6c0,5.8,2.3,8.6,7.3,12l3.9,2.8L31.6,64.1h-9.4l10.9-16.2
	c-6.3-4.5-9.8-8.7-9.8-16.2c0-9.3,6.3-15.7,18.5-15.7H54v48h-8v-42h1V23.1z"/>
<g>
	<g>
		<g>
			<defs>
				<path id="SVGID_1_" d="M125.8,80.2c22.2,0,40.1-17.9,40.1-40.1S148,0,125.8,0S85.7,17.9,85.7,40.1
					C85.5,62.3,103.7,80.2,125.8,80.2z"/>
			</defs>
			<clipPath id="SVGID_00000030456680841895410130000012093474301848965309_">
				<use xlink:href="#SVGID_1_"  style="overflow:visible;"/>
			</clipPath>
			<path style="clip-path:url(#SVGID_00000030456680841895410130000012093474301848965309_);" d="M105.8,22L70.5,68.2l9.4,10.7
				l26.2-34.7l-2.7,19l14.7,5.1L136,39.7c-0.8,5.3-2.1,17.6,9.6,21.4c18.4,5.6,34.5-27.5,41.9-44.3l-10.7-5.6
				c-8.3,17.4-21.1,36.6-26.2,35.3s-0.5-17.6,2.4-28.1v-0.3l-16.3-5.6l-19.5,31.8l2.7-17.4L105.8,22z"/>
		</g>
	</g>
</g>
</svg>
